<svg width="42" height="43" viewBox="0 0 42 43" fill="none" xmlns="http://www.w3.org/2000/svg">
<path d="M32.8125 20.8438H25.5938V22.1562H32.8125V20.8438Z" fill="white"/>
<path d="M24.2812 16.9062H22.9688V4.4375C22.9688 4.26345 23.0379 4.09653 23.161 3.97346C23.284 3.85039 23.451 3.78125 23.625 3.78125H28.2188V5.09375H24.2812V16.9062Z" fill="white"/>
<path d="M21.6562 9.6875H20.3438V16.9062H21.6562V9.6875Z" fill="white"/>
<path d="M19.0312 16.9062H17.7188V5.09375H13.7812V3.78125H18.375C18.549 3.78125 18.716 3.85039 18.839 3.97346C18.9621 4.09653 19.0312 4.26345 19.0312 4.4375V16.9062ZM28.2188 39.2188H23.625C23.451 39.2188 23.284 39.1496 23.161 39.0265C23.0379 38.9035 22.9688 38.7365 22.9688 38.5625V26.0938H24.2812V37.9062H28.2188V39.2188Z" fill="white"/>
<path d="M21.6562 26.0938H20.3438V33.3125H21.6562V26.0938Z" fill="white"/>
<path d="M18.375 39.2188H13.7812V37.9062H17.7188V26.0938H19.0312V38.5625C19.0312 38.7365 18.9621 38.9035 18.839 39.0265C18.716 39.1496 18.549 39.2188 18.375 39.2188ZM38.7188 28.7188H37.4062V24.7812H25.5938V23.4688H38.0625C38.2365 23.4688 38.4035 23.5379 38.5265 23.661C38.6496 23.784 38.7188 23.951 38.7188 24.125V28.7188ZM38.0625 19.5312H25.5938V18.2188H37.4062V14.2812H38.7188V18.875C38.7188 19.049 38.6496 19.216 38.5265 19.339C38.4035 19.4621 38.2365 19.5312 38.0625 19.5312ZM4.59375 28.7188H3.28125V24.125C3.28125 23.951 3.35039 23.784 3.47346 23.661C3.59653 23.5379 3.76345 23.4688 3.9375 23.4688H16.4062V24.7812H4.59375V28.7188Z" fill="white"/>
<path d="M16.4062 20.8438H9.1875V22.1562H16.4062V20.8438Z" fill="white"/>
<path d="M16.4062 19.5312H3.9375C3.76345 19.5312 3.59653 19.4621 3.47346 19.339C3.35039 19.216 3.28125 19.049 3.28125 18.875V14.2812H4.59375V18.2188H16.4062V19.5312Z" fill="white"/>
<path d="M26.25 16.25H15.75V26.75H26.25V16.25Z" fill="white"/>
<path d="M30.1875 6.40625C31.2748 6.40625 32.1562 5.52481 32.1562 4.4375C32.1562 3.35019 31.2748 2.46875 30.1875 2.46875C29.1002 2.46875 28.2188 3.35019 28.2188 4.4375C28.2188 5.52481 29.1002 6.40625 30.1875 6.40625Z" fill="#2E3B49" fill-opacity="0.2"/>
<path d="M11.8125 6.40625C12.8998 6.40625 13.7812 5.52481 13.7812 4.4375C13.7812 3.35019 12.8998 2.46875 11.8125 2.46875C10.7252 2.46875 9.84375 3.35019 9.84375 4.4375C9.84375 5.52481 10.7252 6.40625 11.8125 6.40625Z" fill="#2E3B49" fill-opacity="0.2"/>
<path d="M30.1875 40.5312C31.2748 40.5312 32.1562 39.6498 32.1562 38.5625C32.1562 37.4752 31.2748 36.5938 30.1875 36.5938C29.1002 36.5938 28.2188 37.4752 28.2188 38.5625C28.2188 39.6498 29.1002 40.5312 30.1875 40.5312Z" fill="#2E3B49" fill-opacity="0.2"/>
<path d="M11.8125 40.5312C12.8998 40.5312 13.7812 39.6498 13.7812 38.5625C13.7812 37.4752 12.8998 36.5938 11.8125 36.5938C10.7252 36.5938 9.84375 37.4752 9.84375 38.5625C9.84375 39.6498 10.7252 40.5312 11.8125 40.5312Z" fill="#2E3B49" fill-opacity="0.2"/>
<path d="M38.0625 32.6562C39.1498 32.6562 40.0312 31.7748 40.0312 30.6875C40.0312 29.6002 39.1498 28.7188 38.0625 28.7188C36.9752 28.7188 36.0938 29.6002 36.0938 30.6875C36.0938 31.7748 36.9752 32.6562 38.0625 32.6562Z" fill="#2E3B49" fill-opacity="0.2"/>
<path d="M38.0625 14.2812C39.1498 14.2812 40.0312 13.3998 40.0312 12.3125C40.0312 11.2252 39.1498 10.3438 38.0625 10.3438C36.9752 10.3438 36.0938 11.2252 36.0938 12.3125C36.0938 13.3998 36.9752 14.2812 38.0625 14.2812Z" fill="#2E3B49" fill-opacity="0.2"/>
<path d="M3.9375 32.6562C5.02481 32.6562 5.90625 31.7748 5.90625 30.6875C5.90625 29.6002 5.02481 28.7188 3.9375 28.7188C2.85019 28.7188 1.96875 29.6002 1.96875 30.6875C1.96875 31.7748 2.85019 32.6562 3.9375 32.6562Z" fill="#2E3B49" fill-opacity="0.2"/>
<path d="M3.9375 14.2812C5.02481 14.2812 5.90625 13.3998 5.90625 12.3125C5.90625 11.2252 5.02481 10.3438 3.9375 10.3438C2.85019 10.3438 1.96875 11.2252 1.96875 12.3125C1.96875 13.3998 2.85019 14.2812 3.9375 14.2812Z" fill="#2E3B49" fill-opacity="0.2"/>
<path d="M19.6875 22.1563C19.2981 22.1563 18.9175 22.0408 18.5937 21.8245C18.27 21.6081 18.0176 21.3007 17.8686 20.9409C17.7196 20.5812 17.6806 20.1853 17.7566 19.8034C17.8325 19.4215 18.02 19.0707 18.2954 18.7954C18.5707 18.52 18.9215 18.3325 19.3034 18.2566C19.6853 18.1806 20.0812 18.2196 20.4409 18.3686C20.8007 18.5176 21.1081 18.77 21.3245 19.0937C21.5408 19.4175 21.6563 19.7981 21.6563 20.1875C21.6563 20.7096 21.4488 21.2104 21.0796 21.5796C20.7104 21.9488 20.2096 22.1563 19.6875 22.1563ZM19.6875 19.5313C19.5577 19.5313 19.4308 19.5697 19.3229 19.6418C19.215 19.714 19.1309 19.8165 19.0812 19.9364C19.0315 20.0563 19.0185 20.1882 19.0439 20.3155C19.0692 20.4428 19.1317 20.5598 19.2235 20.6515C19.3152 20.7433 19.4322 20.8058 19.5595 20.8311C19.6868 20.8565 19.8187 20.8435 19.9386 20.7938C20.0586 20.7441 20.161 20.66 20.2332 20.5521C20.3053 20.4442 20.3438 20.3173 20.3438 20.1875C20.3438 20.0135 20.2746 19.8465 20.1515 19.7235C20.0285 19.6004 19.8615 19.5313 19.6875 19.5313Z" fill="#2E3B49" fill-opacity="0.2"/>
<path d="M24.2812 18.875H22.9688V22.8125H24.2812V18.875Z" fill="#2E3B49" fill-opacity="0.2"/>
<path d="M22.3125 23.4688H18.375V24.7812H22.3125V23.4688Z" fill="#2E3B49" fill-opacity="0.2"/>
<path d="M30.1875 7.0625C29.6683 7.0625 29.1608 6.90855 28.7291 6.62011C28.2974 6.33167 27.961 5.9217 27.7623 5.44205C27.5636 4.96239 27.5117 4.43459 27.6129 3.92539C27.7142 3.41619 27.9642 2.94846 28.3313 2.58135C28.6985 2.21423 29.1662 1.96423 29.6754 1.86294C30.1846 1.76165 30.7124 1.81364 31.192 2.01232C31.6717 2.211 32.0817 2.54745 32.3701 2.97913C32.6585 3.41081 32.8125 3.91833 32.8125 4.4375C32.8125 5.13369 32.5359 5.80137 32.0437 6.29366C31.5514 6.78594 30.8837 7.0625 30.1875 7.0625ZM30.1875 3.125C29.9279 3.125 29.6742 3.20198 29.4583 3.3462C29.2425 3.49042 29.0742 3.6954 28.9749 3.93523C28.8756 4.17506 28.8496 4.43896 28.9002 4.69356C28.9509 4.94816 29.0759 5.18202 29.2594 5.36558C29.443 5.54914 29.6768 5.67414 29.9314 5.72478C30.186 5.77543 30.4499 5.74943 30.6898 5.65009C30.9296 5.55075 31.1346 5.38253 31.2788 5.16669C31.423 4.95085 31.5 4.69709 31.5 4.4375C31.5 4.0894 31.3617 3.75556 31.1156 3.50942C30.8694 3.26328 30.5356 3.125 30.1875 3.125ZM11.8125 7.0625C11.2933 7.0625 10.7858 6.90855 10.3541 6.62011C9.92245 6.33167 9.586 5.9217 9.38732 5.44205C9.18864 4.96239 9.13665 4.43459 9.23794 3.92539C9.33923 3.41619 9.58923 2.94846 9.95635 2.58135C10.3235 2.21423 10.7912 1.96423 11.3004 1.86294C11.8096 1.76165 12.3374 1.81364 12.817 2.01232C13.2967 2.211 13.7067 2.54745 13.9951 2.97913C14.2835 3.41081 14.4375 3.91833 14.4375 4.4375C14.4375 5.13369 14.1609 5.80137 13.6687 6.29366C13.1764 6.78594 12.5087 7.0625 11.8125 7.0625ZM11.8125 3.125C11.5529 3.125 11.2992 3.20198 11.0833 3.3462C10.8675 3.49042 10.6992 3.6954 10.5999 3.93523C10.5006 4.17506 10.4746 4.43896 10.5252 4.69356C10.5759 4.94816 10.7009 5.18202 10.8844 5.36558C11.068 5.54914 11.3018 5.67414 11.5564 5.72478C11.811 5.77543 12.0749 5.74943 12.3148 5.65009C12.5546 5.55075 12.7596 5.38253 12.9038 5.16669C13.048 4.95085 13.125 4.69709 13.125 4.4375C13.125 4.0894 12.9867 3.75556 12.7406 3.50942C12.4944 3.26328 12.1606 3.125 11.8125 3.125ZM30.1875 41.1875C29.6683 41.1875 29.1608 41.0335 28.7291 40.7451C28.2974 40.4567 27.961 40.0467 27.7623 39.567C27.5636 39.0874 27.5117 38.5596 27.6129 38.0504C27.7142 37.5412 27.9642 37.0735 28.3313 36.7063C28.6985 36.3392 29.1662 36.0892 29.6754 35.9879C30.1846 35.8867 30.7124 35.9386 31.192 36.1373C31.6717 36.336 32.0817 36.6724 32.3701 37.1041C32.6585 37.5358 32.8125 38.0433 32.8125 38.5625C32.8125 39.2587 32.5359 39.9264 32.0437 40.4187C31.5514 40.9109 30.8837 41.1875 30.1875 41.1875ZM30.1875 37.25C29.9279 37.25 29.6742 37.327 29.4583 37.4712C29.2425 37.6154 29.0742 37.8204 28.9749 38.0602C28.8756 38.3001 28.8496 38.564 28.9002 38.8186C28.9509 39.0732 29.0759 39.307 29.2594 39.4906C29.443 39.6741 29.6768 39.7991 29.9314 39.8498C30.186 39.9004 30.4499 39.8744 30.6898 39.7751C30.9296 39.6758 31.1346 39.5075 31.2788 39.2917C31.423 39.0758 31.5 38.8221 31.5 38.5625C31.5 38.2144 31.3617 37.8806 31.1156 37.6344C30.8694 37.3883 30.5356 37.25 30.1875 37.25ZM11.8125 41.1875C11.2933 41.1875 10.7858 41.0335 10.3541 40.7451C9.92245 40.4567 9.586 40.0467 9.38732 39.567C9.18864 39.0874 9.13665 38.5596 9.23794 38.0504C9.33923 37.5412 9.58923 37.0735 9.95635 36.7063C10.3235 36.3392 10.7912 36.0892 11.3004 35.9879C11.8096 35.8867 12.3374 35.9386 12.817 36.1373C13.2967 36.336 13.7067 36.6724 13.9951 37.1041C14.2835 37.5358 14.4375 38.0433 14.4375 38.5625C14.4375 39.2587 14.1609 39.9264 13.6687 40.4187C13.1764 40.9109 12.5087 41.1875 11.8125 41.1875ZM11.8125 37.25C11.5529 37.25 11.2992 37.327 11.0833 37.4712C10.8675 37.6154 10.6992 37.8204 10.5999 38.0602C10.5006 38.3001 10.4746 38.564 10.5252 38.8186C10.5759 39.0732 10.7009 39.307 10.8844 39.4906C11.068 39.6741 11.3018 39.7991 11.5564 39.8498C11.811 39.9004 12.0749 39.8744 12.3148 39.7751C12.5546 39.6758 12.7596 39.5075 12.9038 39.2917C13.048 39.0758 13.125 38.8221 13.125 38.5625C13.125 38.2144 12.9867 37.8806 12.7406 37.6344C12.4944 37.3883 12.1606 37.25 11.8125 37.25ZM38.0625 33.3125C37.5433 33.3125 37.0358 33.1585 36.6041 32.8701C36.1724 32.5817 35.836 32.1717 35.6373 31.692C35.4386 31.2124 35.3867 30.6846 35.4879 30.1754C35.5892 29.6662 35.8392 29.1985 36.2063 28.8313C36.5735 28.4642 37.0412 28.2142 37.5504 28.1129C38.0596 28.0117 38.5874 28.0636 39.067 28.2623C39.5467 28.461 39.9567 28.7974 40.2451 29.2291C40.5335 29.6608 40.6875 30.1683 40.6875 30.6875C40.6875 31.3837 40.4109 32.0514 39.9187 32.5437C39.4264 33.0359 38.7587 33.3125 38.0625 33.3125ZM38.0625 29.375C37.8029 29.375 37.5492 29.452 37.3333 29.5962C37.1175 29.7404 36.9492 29.9454 36.8499 30.1852C36.7506 30.4251 36.7246 30.689 36.7752 30.9436C36.8259 31.1982 36.9509 31.432 37.1344 31.6156C37.318 31.7991 37.5518 31.9241 37.8064 31.9748C38.061 32.0254 38.3249 31.9994 38.5648 31.9001C38.8046 31.8008 39.0096 31.6325 39.1538 31.4167C39.298 31.2008 39.375 30.9471 39.375 30.6875C39.375 30.3394 39.2367 30.0056 38.9906 29.7594C38.7444 29.5133 38.4106 29.375 38.0625 29.375ZM38.0625 14.9375C37.5433 14.9375 37.0358 14.7835 36.6041 14.4951C36.1724 14.2067 35.836 13.7967 35.6373 13.317C35.4386 12.8374 35.3867 12.3096 35.4879 11.8004C35.5892 11.2912 35.8392 10.8235 36.2063 10.4563C36.5735 10.0892 37.0412 9.83923 37.5504 9.73794C38.0596 9.63665 38.5874 9.68864 39.067 9.88732C39.5467 10.086 39.9567 10.4225 40.2451 10.8541C40.5335 11.2858 40.6875 11.7933 40.6875 12.3125C40.6875 13.0087 40.4109 13.6764 39.9187 14.1687C39.4264 14.6609 38.7587 14.9375 38.0625 14.9375ZM38.0625 11C37.8029 11 37.5492 11.077 37.3333 11.2212C37.1175 11.3654 36.9492 11.5704 36.8499 11.8102C36.7506 12.0501 36.7246 12.314 36.7752 12.5686C36.8259 12.8232 36.9509 13.057 37.1344 13.2406C37.318 13.4241 37.5518 13.5491 37.8064 13.5998C38.061 13.6504 38.3249 13.6244 38.5648 13.5251C38.8046 13.4258 39.0096 13.2575 39.1538 13.0417C39.298 12.8258 39.375 12.5721 39.375 12.3125C39.375 11.9644 39.2367 11.6306 38.9906 11.3844C38.7444 11.1383 38.4106 11 38.0625 11ZM3.9375 33.3125C3.41833 33.3125 2.91081 33.1585 2.47913 32.8701C2.04745 32.5817 1.711 32.1717 1.51232 31.692C1.31364 31.2124 1.26165 30.6846 1.36294 30.1754C1.46423 29.6662 1.71423 29.1985 2.08135 28.8313C2.44846 28.4642 2.91619 28.2142 3.42539 28.1129C3.93459 28.0117 4.46239 28.0636 4.94205 28.2623C5.4217 28.461 5.83167 28.7974 6.12011 29.2291C6.40855 29.6608 6.5625 30.1683 6.5625 30.6875C6.5625 31.3837 6.28594 32.0514 5.79366 32.5437C5.30137 33.0359 4.63369 33.3125 3.9375 33.3125ZM3.9375 29.375C3.67791 29.375 3.42415 29.452 3.20832 29.5962C2.99248 29.7404 2.82425 29.9454 2.72491 30.1852C2.62557 30.4251 2.59958 30.689 2.65022 30.9436C2.70086 31.1982 2.82587 31.432 3.00942 31.6156C3.19298 31.7991 3.42685 31.9241 3.68145 31.9748C3.93605 32.0254 4.19995 31.9994 4.43977 31.9001C4.6796 31.8008 4.88459 31.6325 5.02881 31.4167C5.17302 31.2008 5.25 30.9471 5.25 30.6875C5.25 30.3394 5.11172 30.0056 4.86558 29.7594C4.61944 29.5133 4.2856 29.375 3.9375 29.375ZM3.9375 14.9375C3.41833 14.9375 2.91081 14.7835 2.47913 14.4951C2.04745 14.2067 1.711 13.7967 1.51232 13.317C1.31364 12.8374 1.26165 12.3096 1.36294 11.8004C1.46423 11.2912 1.71423 10.8235 2.08135 10.4563C2.44846 10.0892 2.91619 9.83923 3.42539 9.73794C3.93459 9.63665 4.46239 9.68864 4.94205 9.88732C5.4217 10.086 5.83167 10.4225 6.12011 10.8541C6.40855 11.2858 6.5625 11.7933 6.5625 12.3125C6.5625 13.0087 6.28594 13.6764 5.79366 14.1687C5.30137 14.6609 4.63369 14.9375 3.9375 14.9375ZM3.9375 11C3.67791 11 3.42415 11.077 3.20832 11.2212C2.99248 11.3654 2.82425 11.5704 2.72491 11.8102C2.62557 12.0501 2.59958 12.314 2.65022 12.5686C2.70086 12.8232 2.82587 13.057 3.00942 13.2406C3.19298 13.4241 3.42685 13.5491 3.68145 13.5998C3.93605 13.6504 4.19995 13.6244 4.43977 13.5251C4.6796 13.4258 4.88459 13.2575 5.02881 13.0417C5.17302 12.8258 5.25 12.5721 5.25 12.3125C5.25 11.9644 5.11172 11.6306 4.86558 11.3844C4.61944 11.1383 4.2856 11 3.9375 11Z" fill="white"/>
</svg>
