<svg width="42" height="43" viewBox="0 0 42 43" fill="none" xmlns="http://www.w3.org/2000/svg">
<path fill-rule="evenodd" clip-rule="evenodd" d="M36.0938 7.71875V14.8902L32.1562 18.4602V19.3003L36.0938 15.7309V16.5716L32.3715 19.9467L32.1562 20.1416V20.9816L32.8355 20.3667L36.0938 17.4122V18.2548L33.2994 20.788L32.3715 21.628L32.1562 21.8229V22.6635L32.8355 22.0486L33.7634 21.208L36.0938 19.0948V19.9375L34.2274 21.628L32.1562 23.5062V24.3462L34.6913 22.0486L36.0938 20.7781V21.6194L35.1553 22.4693L32.1562 25.1875V26.0281L35.6193 22.8893L36.0938 22.4601V23.3007L36.0833 23.3099L32.1562 26.8694V27.7094L36.0938 24.1414V24.9827L32.1562 28.5507V29.3914L36.0938 25.8234V26.664L32.1562 30.2327V31.0747L36.0938 27.506V28.3473L32.1562 31.9167V32.7573L36.0938 29.1873V30.0286L32.4713 33.3125H33.3998L36.0938 30.8713V31.7113L34.3278 33.3125H35.2557L36.0938 32.5526V33.3125H40.0312V7.71875H36.0938ZM33.0533 14.2812L32.1562 15.0937V15.935L33.9813 14.2812H33.0533ZM34.9092 14.2812L32.1562 16.777V17.6189L35.8378 14.2812H34.9092ZM16.4062 15.5938V26.1088L12.4688 30.0477V30.9756L16.4062 27.0368V27.9654L12.684 31.6883L12.4688 31.9042V32.8321L13.148 32.1522L16.4062 28.8933V29.8226L13.6119 32.6162L12.9163 33.3125H13.8443L14.0759 33.0802L16.4062 30.7505V31.6784L14.7722 33.3125H15.7001L16.4062 32.6064V33.3125H20.3438V15.5938H16.4062ZM26.25 20.8438V23.4445L22.3125 27.151V28.0251L26.25 24.3186V25.1914L22.5278 28.6958L22.3125 28.8979V29.772L22.9917 29.1328L26.25 26.0642V26.9397L23.4557 29.5686L22.5278 30.4427L22.3125 30.6455V31.5183L22.9917 30.8798L23.9197 30.0057L26.25 27.8125V28.6866L24.3836 30.4427L22.3125 32.3918V33.2646L24.8476 30.8798L26.25 29.5594V30.4322L25.3116 31.3155L23.1906 33.3125H24.1185L25.7755 31.7526L26.25 31.3063V32.1792L26.2395 32.1897L25.0464 33.3125H25.9744L26.25 33.0533V33.3125H30.1875V20.8438H26.25ZM6.5625 22.8125V24.7517L2.625 28.428V29.2943L6.5625 25.618V26.4842L2.84025 29.9597L2.625 30.1605V31.0261L3.30422 30.3928L6.5625 27.3498V28.2174L3.76819 30.826L2.84025 31.6909L2.625 31.8924V32.7586L3.30422 32.124L4.23216 31.2578L6.5625 29.0843V29.9492L4.69613 31.6909L2.95969 33.3125H3.88762L5.16075 32.1247L6.5625 30.8148V31.6811L5.62406 32.5578L4.81556 33.3125H5.7435L6.08803 32.9909L6.5625 32.5486V33.3125H10.5V22.8125H6.5625ZM23.2096 22.8125L22.3125 23.6571V24.5299L24.1375 22.8125H23.2096ZM25.0655 22.8125L22.3125 25.4047V26.2782L25.9941 22.8125H25.0655ZM3.52209 24.125L2.625 24.9617V25.828L4.45003 24.125H3.52209ZM5.37797 24.125L2.625 26.6949V27.5624L6.30656 24.125H5.37797ZM13.3658 25.4375L12.4688 26.3346V27.2625L14.2938 25.4375H13.3658ZM15.2217 25.4375L12.4688 28.1905V29.1197L16.1503 25.4375H15.2217ZM2.00222 33.9688C1.61963 33.9688 1.3125 34.2516 1.3125 34.6033V34.6467C1.3125 34.9984 1.61962 35.2812 2.00156 35.2812H40.6547C41.0366 35.2812 41.3438 34.9984 41.3438 34.6467V34.6033C41.3438 34.2516 41.0366 33.9688 40.6547 33.9688H2.00156H2.00222Z" fill="white"/>
</svg>
