<svg width="42" height="43" viewBox="0 0 42 43" fill="none" xmlns="http://www.w3.org/2000/svg">
<path d="M41.7093 25.7781L38.1938 23.4241C38.3394 22.1449 38.3408 20.8534 38.1977 19.5739L41.7099 17.2219C41.8359 17.1375 41.9286 17.012 41.9726 16.8669C42.0165 16.7218 42.0088 16.566 41.9508 16.4259L39.4026 10.2742C39.3447 10.1338 39.2399 10.0179 39.1062 9.94605C38.9724 9.87425 38.8178 9.85107 38.6689 9.88044L34.5187 10.7014C33.7162 9.69572 32.8034 8.78329 31.7973 7.98125L32.6189 3.83113C32.6483 3.68217 32.6251 3.52762 32.5533 3.39384C32.4815 3.26006 32.3655 3.15531 32.2252 3.09744L26.0741 0.54988C25.9379 0.493481 25.7866 0.484629 25.6446 0.524753C25.5027 0.564876 25.3784 0.651635 25.2919 0.771036L22.6341 4.4375H20.9055C20.675 3.69407 20.2587 3.02168 19.696 2.48385C18.9925 1.81936 18.1633 1.30215 17.2571 0.962602C16.351 0.623051 15.3861 0.468004 14.4191 0.506567H14.4034C11.025 0.513786 8.59688 2.63216 8.28975 5.73622C6.89194 5.78675 3.84037 6.39247 2.80744 10.5879C2.36639 12.1511 2.44282 13.815 3.02531 15.3313C1.53956 16.2992 0 18.1183 0 21.5C0 24.8817 1.53891 26.7008 3.02531 27.6688C2.44328 29.1844 2.36708 30.8476 2.80809 32.4102C3.83906 36.6003 6.88997 37.2093 8.28975 37.2618C8.59688 40.3757 11.025 42.4934 14.4047 42.4934C18.2575 42.4934 20.4258 40.23 20.9016 38.5625H22.6341L25.2919 42.229C25.3784 42.3484 25.5027 42.4351 25.6446 42.4753C25.7866 42.5154 25.9379 42.5065 26.0741 42.4501L32.2258 39.9019C32.3662 39.844 32.4822 39.7393 32.554 39.6055C32.6258 39.4717 32.6489 39.3172 32.6196 39.1682L31.7986 35.022C32.8043 34.2183 33.7167 33.3043 34.5187 32.2973L38.6682 33.1156C38.8172 33.145 38.9717 33.1218 39.1055 33.05C39.2393 32.9782 39.344 32.8623 39.4019 32.7219L41.9501 26.5702C42.0071 26.4306 42.0142 26.2756 41.9704 26.1314C41.9265 25.9871 41.8343 25.8624 41.7093 25.7781ZM38.3952 31.7263L34.3763 30.9316C34.2558 30.9078 34.131 30.9183 34.0162 30.9619C33.9013 31.0056 33.801 31.0806 33.7267 31.1784C32.8539 32.3291 31.8286 33.3557 30.679 34.2299C30.581 34.3043 30.5058 34.4046 30.462 34.5196C30.4183 34.6346 30.4078 34.7596 30.4316 34.8803L31.2263 38.8952L26.0531 41.0392L23.5003 37.521C23.4394 37.4371 23.3595 37.3687 23.2671 37.3216C23.1747 37.2745 23.0725 37.25 22.9688 37.25H21V33.3125C21 33.1385 20.9309 32.9715 20.8078 32.8485C20.6847 32.7254 20.5178 32.6563 20.3438 32.6563C20.1697 32.6563 20.0028 32.7254 19.8797 32.8485C19.7566 32.9715 19.6875 33.1385 19.6875 33.3125V37.9063C19.6875 38.8381 18.1158 41.1809 14.4047 41.1809C11.5119 41.1809 9.56812 39.3375 9.56812 36.5938C9.56812 32.3839 12.7765 31.3575 12.9098 31.3168C12.9942 31.294 13.0732 31.2546 13.1421 31.2009C13.2111 31.1471 13.2686 31.0801 13.3113 31.0038C13.354 30.9275 13.381 30.8435 13.3908 30.7566C13.4005 30.6697 13.3928 30.5817 13.3681 30.4979C13.3434 30.414 13.3022 30.3359 13.2469 30.2682C13.1916 30.2005 13.1233 30.1445 13.0461 30.1035C12.9688 30.0626 12.8842 30.0375 12.7971 30.0297C12.71 30.0219 12.6223 30.0316 12.539 30.0582C11.3246 30.5101 10.272 31.313 9.51498 32.3646C8.758 33.4163 8.33083 34.6693 8.28778 35.9644C7.23319 35.9283 4.90809 35.4578 4.08319 32.103C3.728 30.8496 3.7688 29.517 4.2 28.2876C4.66627 28.4858 5.15411 28.6287 5.65359 28.7135C5.68104 28.7167 5.70864 28.7185 5.73628 28.7188C5.9026 28.7184 6.06261 28.655 6.18394 28.5412C6.30527 28.4275 6.37888 28.2719 6.38988 28.1059C6.40088 27.94 6.34846 27.776 6.24321 27.6472C6.13796 27.5184 5.98773 27.4344 5.82291 27.4122C5.24891 27.307 4.69518 27.1117 4.18228 26.8333C2.87241 26.1351 1.3125 24.6428 1.3125 21.5C1.3125 18.3572 2.87241 16.8649 4.18031 16.1667C4.69326 15.8884 5.24697 15.6931 5.82094 15.5878C5.99351 15.565 6.14992 15.4745 6.25576 15.3363C6.3616 15.198 6.4082 15.0234 6.38531 14.8509C6.36242 14.6783 6.27192 14.5219 6.13371 14.4161C5.99551 14.3102 5.82091 14.2636 5.64834 14.2865C5.14886 14.3713 4.66102 14.5143 4.19475 14.7124C3.76545 13.4839 3.72557 12.1529 4.08056 10.9009C4.90613 7.54616 7.23056 7.07629 8.28581 7.03954C8.32972 8.3339 8.75728 9.58602 9.51419 10.6369C10.2711 11.6878 11.3232 12.4901 12.537 12.9418C12.7033 12.9904 12.882 12.9712 13.0342 12.8884C13.1864 12.8057 13.2997 12.6661 13.3494 12.5002C13.3993 12.3338 13.3811 12.1544 13.299 12.0014C13.2168 11.8484 13.0773 11.7342 12.9111 11.6838C12.7746 11.6425 9.56419 10.6161 9.56419 6.40625C9.56419 3.66904 11.5087 1.82563 14.4021 1.81907H14.4158C15.211 1.78113 16.0057 1.90255 16.7532 2.17619C17.5007 2.44982 18.186 2.87014 18.7688 3.41244C19.2645 3.84637 19.5901 4.44219 19.6875 5.09375V9.6875C19.6875 9.86155 19.7566 10.0285 19.8797 10.1515C20.0028 10.2746 20.1697 10.3438 20.3438 10.3438C20.5178 10.3438 20.6847 10.2746 20.8078 10.1515C20.9309 10.0285 21 9.86155 21 9.6875V5.75H22.9688C23.0725 5.75005 23.1747 5.72551 23.2671 5.67839C23.3595 5.63128 23.4394 5.56294 23.5003 5.47897L26.0531 1.96082L31.2296 4.10479L30.4336 8.12432C30.4099 8.24491 30.4205 8.36975 30.4642 8.48461C30.5079 8.59948 30.5831 8.69975 30.681 8.774C31.8314 9.64621 32.8576 10.6711 33.7313 11.8203C33.8056 11.9185 33.9061 11.9937 34.0212 12.0375C34.1363 12.0813 34.2615 12.0917 34.3822 12.0677L38.3972 11.2737L40.5339 16.4311L37.1326 18.7083C37.0304 18.7768 36.9496 18.8726 36.8992 18.9848C36.8488 19.097 36.831 19.2211 36.8478 19.3429C37.042 20.7738 37.0407 22.2246 36.8438 23.6551C36.8272 23.7769 36.8451 23.9008 36.8954 24.0129C36.9458 24.125 37.0266 24.2207 37.1287 24.2891L40.5339 26.5689L38.3952 31.7263Z" fill="#23BDB9"/>
<path d="M12.3014 20.8798C11.3375 20.5392 10.4996 19.9144 9.89799 19.0878C9.29641 18.2613 8.95944 17.2719 8.93152 16.25C8.93152 16.0759 8.86238 15.909 8.73931 15.786C8.61624 15.6629 8.44932 15.5937 8.27527 15.5937C8.10122 15.5937 7.9343 15.6629 7.81123 15.786C7.68816 15.909 7.61902 16.0759 7.61902 16.25C7.64726 17.2985 7.93028 18.3244 8.44364 19.2391C8.957 20.1537 9.68528 20.9297 10.5656 21.5C9.68588 22.0707 8.95825 22.8468 8.44548 23.7615C7.9327 24.6761 7.65018 25.7018 7.6223 26.75C7.6223 26.924 7.69144 27.091 7.81451 27.214C7.93758 27.3371 8.1045 27.4062 8.27855 27.4062C8.4526 27.4062 8.61952 27.3371 8.74259 27.214C8.86566 27.091 8.9348 26.924 8.9348 26.75C8.96933 25.7298 9.30885 24.7435 9.90954 23.9182C10.5102 23.0929 11.3445 22.4666 12.3046 22.1202C12.4336 22.0755 12.5454 21.9918 12.6246 21.8807C12.7037 21.7695 12.7463 21.6365 12.7463 21.5C12.7463 21.3635 12.7037 21.2305 12.6246 21.1193C12.5454 21.0082 12.4336 20.9245 12.3046 20.8798H12.3014ZM32.8125 18.875C32.2322 18.8772 31.669 19.0716 31.2109 19.4278C30.7528 19.784 30.4257 20.2819 30.2806 20.8437H24.2812V19.5312H26.9062C27.0802 19.5312 27.2471 19.462 27.3702 19.339L29.5187 17.1904C29.9188 17.4316 30.3766 17.5602 30.8437 17.5625C31.3629 17.5625 31.8704 17.4085 32.3021 17.1201C32.7338 16.8317 33.0702 16.4217 33.2689 15.942C33.4676 15.4624 33.5196 14.9346 33.4183 14.4254C33.317 13.9162 33.067 13.4485 32.6999 13.0813C32.3327 12.7142 31.865 12.4642 31.3558 12.3629C30.8466 12.2617 30.3188 12.3136 29.8392 12.5123C29.3595 12.711 28.9495 13.0474 28.6611 13.4791C28.3727 13.9108 28.2187 14.4183 28.2187 14.9375C28.221 15.4046 28.3496 15.8624 28.5908 16.2625L26.6345 18.2187H24.2812V17.1779L26.0577 15.4015C26.1808 15.2784 26.2499 15.1115 26.25 14.9375V12.8756C26.8686 12.7158 27.4077 12.336 27.7663 11.8072C28.1249 11.2784 28.2783 10.637 28.1978 10.0032C28.1173 9.36934 27.8084 8.78664 27.329 8.36429C26.8496 7.94193 26.2326 7.70892 25.5937 7.70892C24.9548 7.70892 24.3378 7.94193 23.8584 8.36429C23.379 8.78664 23.0701 9.36934 22.9896 10.0032C22.9091 10.637 23.0625 11.2784 23.4211 11.8072C23.7797 12.336 24.3188 12.7158 24.9375 12.8756V14.6658L23.3533 16.25H21V14.9375H22.3125C22.4865 14.9375 22.6534 14.8684 22.7765 14.7453C22.8996 14.6222 22.9687 14.4553 22.9687 14.2812C22.9687 14.1072 22.8996 13.9403 22.7765 13.8172C22.6534 13.6941 22.4865 13.625 22.3125 13.625H21V12.3125C21 12.1385 20.9308 11.9715 20.8077 11.8485C20.6847 11.7254 20.5178 11.6562 20.3437 11.6562C20.1697 11.6562 20.0027 11.7254 19.8797 11.8485C19.7566 11.9715 19.6875 12.1385 19.6875 12.3125V17.3761C18.5808 16.0609 17.032 15.1949 15.3319 14.9408C15.1588 14.9225 14.9856 14.9737 14.8503 15.0832C14.7149 15.1927 14.6287 15.3514 14.6104 15.5245C14.5921 15.6976 14.6433 15.8709 14.7528 16.0062C14.8623 16.1415 15.021 16.2278 15.1941 16.2461C16.4663 16.3952 17.6354 17.0186 18.4683 17.9917C19.3011 18.9648 19.7365 20.2161 19.6875 21.4961C19.7379 22.7769 19.3035 24.0296 18.471 25.0042C17.6385 25.9788 16.469 26.6036 15.1961 26.7539C15.0285 26.7708 14.8739 26.8513 14.7641 26.979C14.6543 27.1066 14.5978 27.2716 14.6062 27.4398C14.6146 27.6079 14.6874 27.7664 14.8094 27.8824C14.9314 27.9985 15.0933 28.0632 15.2617 28.0632C15.284 28.0632 15.307 28.0632 15.3273 28.0599C17.0297 27.8063 18.5806 26.9387 19.6875 25.6206V30.6875C19.6875 30.8615 19.7566 31.0285 19.8797 31.1515C20.0027 31.2746 20.1697 31.3438 20.3437 31.3438C20.5178 31.3438 20.6847 31.2746 20.8077 31.1515C20.9308 31.0285 21 30.8615 21 30.6875V29.375H22.3125C22.4865 29.375 22.6534 29.3059 22.7765 29.1828C22.8996 29.0597 22.9687 28.8928 22.9687 28.7188C22.9687 28.5447 22.8996 28.3778 22.7765 28.2547C22.6534 28.1316 22.4865 28.0625 22.3125 28.0625H21V26.75H23.3533L24.9375 28.3342V30.1244C24.3188 30.2842 23.7797 30.664 23.4211 31.1928C23.0625 31.7216 22.9091 32.363 22.9896 32.9968C23.0701 33.6307 23.379 34.2134 23.8584 34.6357C24.3378 35.0581 24.9548 35.2911 25.5937 35.2911C26.2326 35.2911 26.8496 35.0581 27.329 34.6357C27.8084 34.2134 28.1173 33.6307 28.1978 32.9968C28.2783 32.363 28.1249 31.7216 27.7663 31.1928C27.4077 30.664 26.8686 30.2842 26.25 30.1244V28.0625C26.2499 27.8885 26.1808 27.7216 26.0577 27.5985L24.2812 25.8221V24.7812H26.6345L28.5908 26.7375C28.3496 27.1376 28.221 27.5954 28.2187 28.0625C28.2187 28.5817 28.3727 29.0892 28.6611 29.5209C28.9495 29.9526 29.3595 30.289 29.8392 30.4877C30.3188 30.6864 30.8466 30.7383 31.3558 30.6371C31.865 30.5358 32.3327 30.2858 32.6999 29.9187C33.067 29.5515 33.317 29.0838 33.4183 28.5746C33.5196 28.0654 33.4676 27.5376 33.2689 27.058C33.0702 26.5783 32.7338 26.1683 32.3021 25.8799C31.8704 25.5915 31.3629 25.4375 30.8437 25.4375C30.3766 25.4398 29.9188 25.5684 29.5187 25.8096L27.3702 23.661C27.2471 23.538 27.0802 23.4688 26.9062 23.4687H24.2812V22.1562H30.2806C30.4042 22.6304 30.6583 23.0605 31.014 23.3975C31.3697 23.7345 31.8127 23.9651 32.2929 24.063C32.773 24.1609 33.271 24.1222 33.7302 23.9513C34.1895 23.7804 34.5916 23.4841 34.891 23.0962C35.1903 22.7082 35.3749 22.2441 35.4237 21.7565C35.4725 21.2689 35.3837 20.7774 35.1672 20.3378C34.9507 19.8982 34.6154 19.5281 34.1991 19.2695C33.7829 19.011 33.3025 18.8743 32.8125 18.875ZM30.8437 13.625C31.0596 13.6248 31.2721 13.6779 31.4625 13.7795C31.653 13.8812 31.8154 14.0282 31.9355 14.2076C32.0555 14.387 32.1294 14.5932 32.1507 14.808C32.172 15.0228 32.14 15.2395 32.0576 15.439C31.9751 15.6385 31.8447 15.8145 31.6779 15.9516C31.5111 16.0886 31.3131 16.1824 31.1015 16.2246C30.8898 16.2669 30.671 16.2562 30.4644 16.1937C30.2578 16.1312 30.0698 16.0186 29.9171 15.8661C29.7334 15.6827 29.6083 15.4489 29.5575 15.1943C29.5067 14.9398 29.5326 14.6759 29.6317 14.436C29.7309 14.1961 29.899 13.991 30.1147 13.8467C30.3304 13.7023 30.5841 13.6252 30.8437 13.625ZM24.2812 10.3437C24.2812 10.0842 24.3582 9.8304 24.5024 9.61456C24.6466 9.39872 24.8516 9.2305 25.0914 9.13116C25.3313 9.03182 25.5952 9.00582 25.8498 9.05647C26.1044 9.10711 26.3382 9.23211 26.5218 9.41567C26.7053 9.59923 26.8303 9.83309 26.881 10.0877C26.9316 10.3423 26.9056 10.6062 26.8063 10.846C26.707 11.0858 26.5387 11.2908 26.3229 11.4351C26.1071 11.5793 25.8533 11.6562 25.5937 11.6562C25.2456 11.6562 24.9118 11.518 24.6656 11.2718C24.4195 11.0257 24.2812 10.6918 24.2812 10.3437ZM26.9062 32.6562C26.9062 32.9158 26.8292 33.1696 26.685 33.3854C26.5408 33.6013 26.3358 33.7695 26.096 33.8688C25.8561 33.9682 25.5922 33.9942 25.3376 33.9435C25.083 33.8929 24.8492 33.7679 24.6656 33.5843C24.4821 33.4008 24.3571 33.1669 24.3064 32.9123C24.2558 32.6577 24.2818 32.3938 24.3811 32.154C24.4805 31.9142 24.6487 31.7092 24.8645 31.5649C25.0804 31.4207 25.3341 31.3438 25.5937 31.3438C25.9418 31.3438 26.2756 31.482 26.5218 31.7282C26.7679 31.9743 26.9062 32.3082 26.9062 32.6562ZM32.1562 28.0625C32.1564 28.2783 32.1033 28.4909 32.0017 28.6813C31.9 28.8718 31.753 29.0342 31.5736 29.1542C31.3942 29.2743 31.188 29.3482 30.9732 29.3695C30.7584 29.3908 30.5417 29.3588 30.3422 29.2763C30.1427 29.1939 29.9667 29.0635 29.8296 28.8967C29.6926 28.7299 29.5988 28.5319 29.5566 28.3203C29.5143 28.1086 29.525 27.8898 29.5875 27.6832C29.65 27.4766 29.7626 27.2886 29.9151 27.1359C30.0986 26.9522 30.3323 26.8271 30.5869 26.7763C30.8414 26.7255 31.1053 26.7513 31.3452 26.8505C31.5851 26.9497 31.7902 27.1178 31.9345 27.3335C32.0789 27.5492 32.156 27.8029 32.1562 28.0625ZM21 17.5625H22.9687V25.4375H21V17.5625ZM32.8125 22.8125C32.5529 22.8125 32.2991 22.7355 32.0833 22.5913C31.8674 22.4471 31.6992 22.2421 31.5999 22.0023C31.5005 21.7624 31.4745 21.4985 31.5252 21.2439C31.5758 20.9893 31.7008 20.7555 31.8844 20.5719C32.0679 20.3884 32.3018 20.2634 32.5564 20.2127C32.811 20.1621 33.0749 20.1881 33.3147 20.2874C33.5546 20.3867 33.7595 20.555 33.9038 20.7708C34.048 20.9867 34.125 21.2404 34.125 21.5C34.125 21.8481 33.9867 22.1819 33.7405 22.4281C33.4944 22.6742 33.1606 22.8125 32.8125 22.8125Z" fill="#23BDB9"/>
</svg>
