<svg width="43" height="43" viewBox="0 0 43 43" fill="none" xmlns="http://www.w3.org/2000/svg">
<g clip-path="url(#clip0_40_3188)">
<path d="M34.3958 8.375C32.966 9.74341 31.2651 10.7968 29.403 11.4672C27.4395 11.8138 22.0058 9.29375 19.3283 11.8662C18.882 12.3125 18.3308 12.7588 17.7533 13.205C16.4933 12.6538 14.5508 11.8138 13.1333 11C11.7158 10.1862 8.14575 8.375 8.14575 8.375L0.270752 17.5625C0.270752 17.5625 2.21325 20.1875 3.42075 21.92C4.20825 23.075 5.1795 24.8338 5.8095 26.015L4.917 27.065C4.70327 27.4896 4.62637 27.97 4.69688 28.4401C4.7674 28.9101 4.98185 29.3468 5.31075 29.69C5.69038 29.9746 6.15229 30.128 6.62675 30.1271C7.10122 30.1261 7.56251 29.9709 7.941 29.6847C7.80066 29.8491 7.69445 30.0397 7.62856 30.2455C7.56267 30.4513 7.53842 30.6682 7.55724 30.8834C7.57605 31.0987 7.63755 31.3081 7.73814 31.4993C7.83873 31.6906 7.97641 31.8599 8.14313 31.9974C8.54397 32.2315 9.00001 32.3544 9.46422 32.3535C9.92842 32.3526 10.384 32.2278 10.7839 31.9921C10.484 32.366 10.3198 32.8305 10.3184 33.3098C10.317 33.7891 10.4783 34.2546 10.776 34.6302C11.163 34.7642 11.5756 34.8069 11.9818 34.755C12.388 34.7031 12.7767 34.558 13.1175 34.331C12.9477 34.7329 12.9037 35.1768 12.9914 35.6042C13.079 36.0316 13.2941 36.4224 13.6084 36.725C14.0523 36.9223 14.539 37.0036 15.0229 36.9613C15.5068 36.9191 15.9721 36.7547 16.3751 36.4835L17.7296 35.2576C18.9686 36.4914 20.6775 37.2552 22.5649 37.2552L22.725 37.2526C23.347 37.1995 23.9428 36.9783 24.4487 36.6125C24.9546 36.2467 25.3514 35.7503 25.5968 35.1763C25.98 35.3232 26.4158 35.423 26.8778 35.423C27.4973 35.423 28.0721 35.2445 28.5578 34.9374C30.0934 33.9215 29.7259 33.134 29.7259 33.134C30.2719 33.369 30.8785 33.4248 31.4582 33.2932C32.0379 33.1616 32.561 32.8494 32.952 32.4016C33.3584 31.9859 33.6146 31.4467 33.6802 30.8691C33.7458 30.2915 33.617 29.7085 33.3143 29.2122C33.3309 29.2222 33.3501 29.2267 33.3694 29.2254C34.4745 29.2254 35.4353 28.6164 35.9366 27.7186C36.1834 27.0806 36.2667 26.391 36.1792 25.7125C36.0916 25.034 35.8359 24.3881 35.4353 23.8336L35.4431 23.8468C37.5956 23.4268 37.5169 22.3505 38.5669 20.7755C39.5611 19.4902 40.7981 18.4128 42.2078 17.6045L34.3958 8.375ZM34.2645 26.9075C33.1095 28.0625 32.217 27.5637 30.2483 26.0675C28.2795 24.5712 24.3683 21.7625 24.3683 21.7625C24.5284 22.5631 24.8985 23.2587 25.4209 23.8126C26.2583 24.755 28.752 26.9075 29.9333 28.01C30.6683 28.6925 32.5583 30.0575 31.4558 31.1075C30.3533 32.1575 29.487 31.1075 27.6758 29.6375C25.8645 28.1675 21.822 24.545 21.822 24.545C21.7997 24.8922 21.8514 25.2403 21.9736 25.5661C22.0957 25.8919 22.2857 26.188 22.5308 26.435C22.977 26.96 25.4708 29.375 26.5208 30.4775C27.5708 31.58 28.4895 32.2362 27.597 33.1025C26.7045 33.9688 24.8933 32.6038 23.8958 31.58C22.347 30.0837 19.2758 27.3013 19.2758 27.3013L19.2731 27.4404C19.2731 28.1859 19.5304 28.8684 19.9635 29.4091C20.7195 30.4014 22.1895 31.6876 23.082 32.6851C23.9745 33.6826 24.4995 34.5226 23.082 35.3101C21.6645 36.0976 19.5645 34.1551 18.6458 33.2101V33.2049C18.6459 32.9456 18.5528 32.6949 18.3833 32.4987C18.0693 32.2079 17.6818 32.0082 17.2628 31.9212C16.8437 31.8343 16.4088 31.8633 16.005 32.0052C16.1711 31.8565 16.3043 31.6746 16.396 31.4714C16.4877 31.2681 16.5358 31.0479 16.5373 30.8249C16.5387 30.6019 16.4936 30.381 16.4046 30.1765C16.3156 29.9721 16.1849 29.7884 16.0208 29.6375C15.6762 29.3764 15.2556 29.2354 14.8233 29.2358C14.391 29.2363 13.9707 29.3783 13.6268 29.6401C13.8007 29.474 13.935 29.2708 14.0196 29.0456C14.1042 28.8205 14.137 28.5791 14.1156 28.3395C14.0942 28.0999 14.019 27.8683 13.8958 27.6617C13.7725 27.4551 13.6043 27.279 13.4036 27.1464C12.9337 26.8511 12.3823 26.7124 11.8286 26.7501C11.2749 26.7878 10.7474 27.0001 10.3219 27.3564C10.6063 27.0117 10.7465 26.5704 10.7132 26.1248C10.68 25.6792 10.4758 25.2636 10.1434 24.965C9.73024 24.5805 9.20376 24.3399 8.64262 24.2794C8.08147 24.2188 7.5158 24.3415 7.03013 24.629L5.2845 21.6811C4.077 19.7649 2.6595 17.7699 2.6595 17.7699L8.6445 10.4986C8.6445 10.4986 10.7708 11.8111 12.5295 12.8086C13.3958 13.3074 14.892 13.9636 16.0208 14.4886C14.2358 15.8274 12.7395 17.1136 13.1858 18.0061C13.981 18.577 14.9314 18.8919 15.9102 18.9088C16.889 18.9256 17.8497 18.6437 18.6641 18.1006C19.7084 17.4064 20.9355 17.0382 22.1895 17.0428C23.1004 17.0428 23.9666 17.2318 24.7515 17.5756C26.2058 18.5574 28.8833 20.9724 31.3245 22.4949C34.3958 24.7261 34.9995 26.1699 34.2645 26.9049V26.9075Z" fill="white"/>
</g>
<defs>
<clipPath id="clip0_40_3188">
<rect width="42" height="42" fill="white" transform="translate(0.270752 0.5)"/>
</clipPath>
</defs>
</svg>
