<svg width="42" height="37" viewBox="0 0 42 37" fill="none" xmlns="http://www.w3.org/2000/svg">
<path d="M41.5803 12.4586C41.6242 12.3227 41.6282 12.1757 41.5809 12.0373L38.049 1.62519C37.7353 0.700532 36.8684 0.0797195 35.8925 0.0797195H6.8922C5.93735 0.0797195 5.07701 0.682813 4.75151 1.58056L0.964945 12.0241C0.91507 12.1613 0.916383 12.3076 0.95707 12.4441C0.970851 14.3742 2.38507 15.9754 4.23569 16.2937V34.6346C4.23569 35.8952 5.26076 36.9203 6.52076 36.9203H36.0303C37.2904 36.9203 38.3154 35.8952 38.3154 34.6346V16.2937C40.1542 15.9754 41.5593 14.382 41.5803 12.4586ZM33.6154 13.0072C33.5845 13.1391 33.5464 13.2677 33.4959 13.3911C33.4749 13.4429 33.4467 13.4908 33.4224 13.5407C33.3778 13.6333 33.3305 13.7245 33.2754 13.8111C33.2419 13.8636 33.2039 13.9122 33.1665 13.9614C33.1094 14.0375 33.0497 14.1123 32.9847 14.1819C32.9407 14.2285 32.8948 14.2731 32.8482 14.3164C32.7793 14.3801 32.7064 14.4398 32.631 14.4956C32.5798 14.5336 32.5279 14.571 32.4735 14.6052C32.3921 14.657 32.3061 14.701 32.2188 14.7436C32.1631 14.7705 32.1093 14.7994 32.0515 14.8224C31.9524 14.8617 31.8481 14.8913 31.7431 14.9182C31.6919 14.9313 31.642 14.9497 31.5895 14.9602C31.4294 14.991 31.2653 15.0101 31.096 15.0101C30.926 15.0101 30.7607 14.991 30.5999 14.9602C30.5467 14.9497 30.4975 14.932 30.4457 14.9182C30.34 14.8913 30.2357 14.8617 30.1353 14.8224C30.0775 14.7994 30.023 14.7705 29.9673 14.7436C29.8793 14.701 29.7927 14.6563 29.7107 14.6052C29.6562 14.571 29.6043 14.5336 29.5525 14.4956C29.4764 14.4398 29.4035 14.3801 29.334 14.3158C29.2867 14.2724 29.2408 14.2285 29.1968 14.1819C29.1312 14.1123 29.0715 14.0382 29.0137 13.9614C28.9763 13.9122 28.9383 13.8629 28.9041 13.8111C28.8484 13.7251 28.8018 13.6333 28.7565 13.5407C28.7322 13.4908 28.704 13.4429 28.683 13.3911C28.6331 13.269 28.595 13.1404 28.5635 13.0098C28.557 12.9829 28.5458 12.958 28.5406 12.9311C28.5406 12.9297 28.5406 12.9284 28.5399 12.9271H33.637C33.637 12.9284 33.637 12.9297 33.6363 12.9311C33.6324 12.9573 33.6213 12.9809 33.6154 13.0072ZM27.0686 13.0072C27.0378 13.1391 26.9997 13.2677 26.9492 13.3911C26.9282 13.4429 26.8999 13.4908 26.8757 13.5407C26.831 13.6333 26.7838 13.7245 26.7287 13.8111C26.6952 13.8636 26.6571 13.9122 26.6197 13.9614C26.5626 14.0375 26.5029 14.1123 26.4379 14.1819C26.394 14.2285 26.348 14.2731 26.3014 14.3164C26.2325 14.3801 26.1597 14.4398 26.0842 14.4956C26.033 14.5336 25.9812 14.571 25.9267 14.6052C25.8454 14.657 25.7594 14.701 25.6721 14.7436C25.6163 14.7705 25.5625 14.7994 25.5048 14.8224C25.4057 14.8617 25.3013 14.8913 25.1963 14.9182C25.1451 14.9313 25.0953 14.9497 25.0428 14.9602C24.8826 14.991 24.7186 15.0101 24.5493 15.0101C24.3793 15.0101 24.2139 14.991 24.0531 14.9602C24 14.9497 23.9508 14.932 23.8989 14.9182C23.7933 14.8913 23.6889 14.8617 23.5885 14.8224C23.5308 14.7994 23.4763 14.7705 23.4205 14.7436C23.3326 14.701 23.2459 14.6563 23.1639 14.6052C23.1094 14.571 23.0576 14.5336 23.0058 14.4956C22.9296 14.4398 22.8568 14.3801 22.7872 14.3158C22.74 14.2724 22.694 14.2285 22.6501 14.1819C22.5844 14.1123 22.5247 14.0382 22.467 13.9614C22.4296 13.9122 22.3915 13.8629 22.3574 13.8111C22.3016 13.7251 22.255 13.6333 22.2097 13.5407C22.1854 13.4908 22.1572 13.4429 22.1362 13.3911C22.0864 13.269 22.0483 13.1404 22.0168 13.0098C22.0102 12.9829 21.9991 12.958 21.9938 12.9311C21.9938 12.9297 21.9938 12.9284 21.9932 12.9271H27.0903C27.0903 12.9284 27.0903 12.9297 27.0896 12.9311C27.085 12.9573 27.0745 12.9809 27.0686 13.0072ZM20.5212 13.0072C20.4904 13.1391 20.4523 13.2677 20.4018 13.3911C20.3808 13.4429 20.3525 13.4908 20.3283 13.5407C20.2836 13.6333 20.2364 13.7245 20.1813 13.8111C20.1478 13.8636 20.1097 13.9122 20.0723 13.9614C20.0152 14.0375 19.9555 14.1123 19.8905 14.1819C19.8466 14.2285 19.8006 14.2731 19.754 14.3164C19.6851 14.3801 19.6123 14.4398 19.5368 14.4956C19.4856 14.5336 19.4338 14.571 19.3793 14.6052C19.2979 14.657 19.212 14.701 19.1247 14.7436C19.0689 14.7705 19.0151 14.7994 18.9574 14.8224C18.8583 14.8617 18.7539 14.8913 18.6489 14.9182C18.5977 14.9313 18.5479 14.9497 18.4954 14.9602C18.3352 14.991 18.1712 15.0101 18.0019 15.0101C17.8319 15.0101 17.6665 14.991 17.5057 14.9602C17.4526 14.9497 17.4034 14.932 17.3515 14.9182C17.2459 14.8913 17.1415 14.8617 17.0411 14.8224C16.9834 14.7994 16.9289 14.7705 16.8731 14.7436C16.7852 14.701 16.6985 14.6563 16.6165 14.6052C16.562 14.571 16.5102 14.5336 16.4584 14.4956C16.3822 14.4398 16.3094 14.3801 16.2398 14.3158C16.1926 14.2724 16.1466 14.2285 16.1027 14.1819C16.037 14.1123 15.9773 14.0382 15.9196 13.9614C15.8822 13.9122 15.8441 13.8629 15.81 13.8111C15.7542 13.7251 15.7076 13.6333 15.6623 13.5407C15.638 13.4908 15.6098 13.4429 15.5888 13.3911C15.5389 13.269 15.5009 13.1404 15.4694 13.0098C15.4628 12.9829 15.4517 12.958 15.4464 12.9311C15.4464 12.9297 15.4464 12.9284 15.4458 12.9271H20.5429C20.5429 12.9284 20.5429 12.9297 20.5422 12.9311C20.5383 12.9573 20.5278 12.9809 20.5212 13.0072ZM13.9744 13.0072C13.9436 13.1391 13.9055 13.2677 13.855 13.3911C13.834 13.4429 13.8058 13.4908 13.7815 13.5407C13.7369 13.6333 13.6896 13.7245 13.6345 13.8111C13.601 13.8636 13.563 13.9122 13.5256 13.9614C13.4685 14.0375 13.4088 14.1123 13.3438 14.1819C13.2998 14.2285 13.2539 14.2731 13.2073 14.3164C13.1384 14.3801 13.0655 14.4398 12.9901 14.4956C12.9389 14.5336 12.887 14.571 12.8326 14.6052C12.7512 14.657 12.6652 14.701 12.5779 14.7436C12.5222 14.7705 12.4684 14.7994 12.4106 14.8224C12.3115 14.8617 12.2072 14.8913 12.1022 14.9182C12.051 14.9313 12.0011 14.9497 11.9486 14.9602C11.7885 14.991 11.6244 15.0101 11.4551 15.0101C11.2851 15.0101 11.1198 14.991 10.959 14.9602C10.9058 14.9497 10.8566 14.932 10.8048 14.9182C10.6991 14.8913 10.5948 14.8617 10.4944 14.8224C10.4366 14.7994 10.3821 14.7705 10.3264 14.7436C10.2384 14.701 10.1518 14.6563 10.0698 14.6052C10.0153 14.571 9.96344 14.5336 9.9116 14.4956C9.83548 14.4398 9.76263 14.3801 9.69307 14.3158C9.64582 14.2724 9.59988 14.2285 9.55591 14.1819C9.49029 14.1123 9.43057 14.0382 9.37282 13.9614C9.33541 13.9122 9.29735 13.8629 9.26323 13.8111C9.20745 13.7251 9.16085 13.6333 9.11557 13.5407C9.09129 13.4908 9.06307 13.4429 9.04207 13.3911C8.9922 13.269 8.95413 13.1404 8.92263 13.0098C8.91607 12.9829 8.90491 12.958 8.89966 12.9311C8.89966 12.9297 8.89966 12.9284 8.89901 12.9271H13.9961C13.9961 12.9284 13.9961 12.9297 13.9954 12.9311C13.9915 12.9573 13.981 12.9809 13.9744 13.0072ZM16.2136 1.42569L14.0368 11.5766H9.34919L11.5253 1.42569H16.2136ZM20.7417 1.42569V11.5766H15.4136L17.5904 1.42569H20.7417ZM28.574 11.5766L27.3869 1.42569H32.0817L33.2689 11.5766H28.574ZM27.2189 11.5766H22.0877V1.42569H26.0317L27.2189 11.5766ZM36.7745 2.05766L40.0033 11.5759H34.624L33.4362 1.42569H35.8925C36.2922 1.42569 36.6459 1.67966 36.7745 2.05766ZM6.01741 2.03928C6.15063 1.67178 6.50173 1.42569 6.8922 1.42569H10.1492L7.97304 11.5766H2.55963L6.01741 2.03928ZM2.35291 12.9265H7.45066C7.45066 12.9278 7.45066 12.9291 7.45001 12.9304C7.44476 12.9567 7.4336 12.9803 7.42769 13.0065C7.39685 13.1384 7.35879 13.2671 7.30826 13.3904C7.28726 13.4423 7.25904 13.4902 7.23476 13.5401C7.19013 13.6326 7.14288 13.7238 7.08776 13.8104C7.05429 13.8629 7.01623 13.9115 6.97882 13.9607C6.92173 14.0368 6.86201 14.1117 6.79704 14.1812C6.75307 14.2278 6.70713 14.2724 6.66054 14.3158C6.59163 14.3794 6.51879 14.4391 6.44332 14.4949C6.39213 14.533 6.34029 14.5704 6.28582 14.6045C6.20445 14.6563 6.11848 14.7003 6.03119 14.743C5.97541 14.7699 5.9216 14.7987 5.86385 14.8217C5.76476 14.8611 5.66041 14.8906 5.55541 14.9175C5.50423 14.9307 5.45435 14.949 5.40185 14.9595C5.24173 14.9904 5.07766 15.0094 4.90835 15.0094C3.64638 15.0094 2.59179 14.113 2.35291 12.9265ZM36.9694 34.6346C36.9694 35.1523 36.5481 35.5743 36.0303 35.5743H6.52076C6.00298 35.5743 5.58166 35.153 5.58166 34.6346V16.2976C5.6007 16.2943 5.61907 16.2884 5.6381 16.2845C5.71094 16.2707 5.78182 16.253 5.85269 16.2359C5.91044 16.2215 5.96819 16.2084 6.02463 16.1913C6.09551 16.1703 6.16441 16.1454 6.23398 16.1204C6.28844 16.1007 6.34291 16.083 6.39607 16.0614C6.46498 16.0332 6.53126 16.001 6.59754 15.9688C6.64807 15.9446 6.69991 15.9216 6.74979 15.8953C6.81607 15.8599 6.87907 15.8212 6.94273 15.7825C6.98932 15.7542 7.03723 15.7273 7.08316 15.6972C7.14748 15.6545 7.20785 15.6079 7.26954 15.5613C7.31088 15.5298 7.35419 15.5009 7.39423 15.4675C7.45657 15.4163 7.51498 15.3612 7.57404 15.3067C7.60948 15.2739 7.64688 15.243 7.68166 15.2089C7.74663 15.1446 7.80635 15.0757 7.86673 15.0074C7.89166 14.9792 7.91791 14.9536 7.94219 14.9247C8.02423 14.8257 8.10166 14.7226 8.17451 14.6157C8.17516 14.615 8.17516 14.615 8.17582 14.6143C8.17582 14.615 8.17648 14.615 8.17648 14.6157C8.25785 14.7357 8.3471 14.8493 8.44094 14.9595C8.46982 14.9937 8.50132 15.0252 8.53085 15.0586C8.5991 15.1334 8.66998 15.2063 8.74348 15.2758C8.78023 15.3106 8.81763 15.3441 8.85569 15.3776C8.93182 15.4438 9.01057 15.5068 9.09195 15.5672C9.1287 15.5948 9.16413 15.623 9.20154 15.6486C9.31835 15.73 9.43845 15.8061 9.56444 15.8743C9.56707 15.8757 9.56904 15.8776 9.57166 15.8789C9.69963 15.9485 9.83285 16.0089 9.96869 16.064C10.0107 16.0811 10.054 16.0948 10.0967 16.1106C10.1938 16.146 10.2922 16.1788 10.3933 16.2064C10.4432 16.2202 10.4937 16.2333 10.5449 16.2451C10.6466 16.2694 10.7496 16.2884 10.854 16.3042C10.9012 16.3114 10.9472 16.3199 10.9951 16.3258C11.1467 16.3436 11.2996 16.3547 11.4558 16.3547C11.6113 16.3547 11.7642 16.3436 11.9145 16.3258C11.9617 16.3206 12.0077 16.3114 12.0549 16.3042C12.1593 16.2884 12.2623 16.2687 12.3634 16.2451C12.4139 16.2333 12.4638 16.2202 12.5136 16.2064C12.614 16.1782 12.7125 16.146 12.8096 16.1099C12.8516 16.0942 12.8949 16.0804 12.9363 16.0633C13.0721 16.0082 13.2047 15.9472 13.3326 15.8776C13.3339 15.877 13.3353 15.8757 13.3372 15.875C13.4632 15.8061 13.584 15.7293 13.7014 15.6473C13.7389 15.621 13.7736 15.5935 13.8104 15.5659C13.8911 15.5055 13.9699 15.4425 14.046 15.3756C14.084 15.3421 14.1208 15.3087 14.1575 15.2745C14.231 15.205 14.3019 15.1321 14.3702 15.0567C14.3997 15.0238 14.4305 14.9923 14.4594 14.9582C14.5526 14.848 14.6419 14.7344 14.7226 14.6143C14.7226 14.6137 14.7232 14.6137 14.7232 14.613C14.7232 14.6137 14.7239 14.6137 14.7239 14.6143C14.8053 14.7344 14.8945 14.848 14.9884 14.9582C15.0172 14.9923 15.0487 15.0238 15.0783 15.0573C15.1465 15.1321 15.2174 15.205 15.2909 15.2745C15.3276 15.3093 15.365 15.3428 15.4031 15.3762C15.4792 15.4425 15.558 15.5055 15.6394 15.5659C15.6761 15.5935 15.7115 15.6217 15.7489 15.6473C15.8658 15.7287 15.9859 15.8048 16.1119 15.873C16.1145 15.8743 16.1164 15.8763 16.1191 15.8776C16.247 15.9472 16.3803 16.0076 16.5161 16.0627C16.5581 16.0797 16.6014 16.0935 16.6441 16.1093C16.7412 16.1447 16.8396 16.1775 16.9407 16.2051C16.9906 16.2189 17.0411 16.232 17.0923 16.2438C17.194 16.2681 17.297 16.2871 17.4014 16.3029C17.4486 16.3101 17.4946 16.3186 17.5425 16.3245C17.6941 16.3422 17.847 16.3534 18.0032 16.3534C18.1587 16.3534 18.3116 16.3422 18.4619 16.3245C18.5091 16.3193 18.5551 16.3101 18.6023 16.3029C18.7067 16.2871 18.8097 16.2674 18.9108 16.2438C18.9613 16.232 19.0112 16.2189 19.061 16.2051C19.1614 16.1769 19.2599 16.1447 19.357 16.1086C19.399 16.0929 19.4423 16.0791 19.4837 16.062C19.6195 16.0069 19.7521 15.9459 19.88 15.8763C19.8814 15.8757 19.8827 15.8743 19.8846 15.8737C20.0106 15.8048 20.1314 15.728 20.2489 15.646C20.2863 15.6197 20.321 15.5922 20.3578 15.5646C20.4385 15.5042 20.5173 15.4412 20.5934 15.3743C20.6314 15.3408 20.6682 15.3073 20.7049 15.2732C20.7784 15.2037 20.8493 15.1308 20.9176 15.0553C20.9471 15.0225 20.9779 14.991 21.0068 14.9569C21.1 14.8467 21.1893 14.7331 21.27 14.613C21.27 14.6124 21.2706 14.6124 21.2706 14.6117C21.2706 14.6124 21.2713 14.6124 21.2713 14.613C21.3527 14.7331 21.4419 14.8467 21.5358 14.9569C21.5646 14.991 21.5961 15.0225 21.6257 15.056C21.6939 15.1308 21.7648 15.2037 21.8383 15.2732C21.875 15.308 21.9124 15.3415 21.9505 15.3749C22.0266 15.4412 22.1054 15.5042 22.1868 15.5646C22.2235 15.5922 22.2589 15.6204 22.2964 15.646C22.4132 15.7273 22.5333 15.8035 22.6593 15.8717C22.6619 15.873 22.6638 15.875 22.6665 15.8763C22.7944 15.9459 22.9277 16.0062 23.0635 16.0614C23.1055 16.0784 23.1488 16.0922 23.1915 16.108C23.2886 16.1434 23.387 16.1762 23.4881 16.2038C23.538 16.2176 23.5885 16.2307 23.6397 16.2425C23.7414 16.2668 23.8444 16.2858 23.9488 16.3016C23.996 16.3088 24.042 16.3173 24.0899 16.3232C24.2415 16.3409 24.3944 16.3521 24.5506 16.3521C24.7061 16.3521 24.859 16.3409 25.0093 16.3232C25.0565 16.318 25.1025 16.3088 25.1497 16.3016C25.2541 16.2858 25.3571 16.2661 25.4582 16.2425C25.5087 16.2307 25.5586 16.2176 25.6084 16.2038C25.7089 16.1756 25.8073 16.1434 25.9044 16.1073C25.9464 16.0916 25.9897 16.0778 26.0311 16.0607C26.1669 16.0056 26.2995 15.9446 26.4274 15.875C26.4288 15.8743 26.4301 15.873 26.432 15.8724C26.558 15.8035 26.6788 15.7267 26.7963 15.6447C26.8337 15.6184 26.8684 15.5908 26.9052 15.5633C26.9859 15.5029 27.0647 15.4399 27.1408 15.373C27.1789 15.3395 27.2156 15.306 27.2524 15.2719C27.3259 15.2023 27.3967 15.1295 27.465 15.054C27.4945 15.0212 27.5254 14.9897 27.5542 14.9556C27.6474 14.8453 27.7367 14.7318 27.8174 14.6117C27.8174 14.6111 27.818 14.6111 27.818 14.6104C27.818 14.6111 27.8187 14.6111 27.8187 14.6117C27.9001 14.7318 27.9893 14.8453 28.0832 14.9556C28.112 14.9897 28.1435 15.0212 28.1731 15.0547C28.2413 15.1295 28.3122 15.2023 28.3857 15.2719C28.4224 15.3067 28.4599 15.3402 28.4979 15.3736C28.574 15.4399 28.6528 15.5029 28.7342 15.5633C28.7709 15.5908 28.8064 15.6191 28.8438 15.6447C28.9606 15.726 29.0807 15.8022 29.2067 15.8704C29.2093 15.8717 29.2113 15.8737 29.2139 15.875C29.3419 15.9446 29.4751 16.0049 29.6109 16.0601C29.6529 16.0771 29.6962 16.0909 29.7389 16.1067C29.836 16.1421 29.9344 16.1749 30.0355 16.2025C30.0854 16.2162 30.1359 16.2294 30.1871 16.2412C30.2888 16.2655 30.3918 16.2845 30.4962 16.3002C30.5434 16.3075 30.5894 16.316 30.6373 16.3219C30.7889 16.3396 30.9418 16.3508 31.098 16.3508C31.2535 16.3508 31.4064 16.3396 31.5567 16.3219C31.6039 16.3167 31.6499 16.3075 31.6971 16.3002C31.8015 16.2845 31.9045 16.2648 32.0056 16.2412C32.0561 16.2294 32.106 16.2162 32.1559 16.2025C32.2563 16.1742 32.3547 16.1421 32.4518 16.106C32.4938 16.0902 32.5371 16.0765 32.5785 16.0594C32.7143 16.0043 32.8469 15.9432 32.9748 15.8737C32.9762 15.873 32.9775 15.8717 32.9794 15.8711C33.1054 15.8022 33.2262 15.7254 33.3437 15.6433C33.3811 15.6171 33.4159 15.5895 33.4526 15.562C33.5333 15.5016 33.6121 15.4386 33.6882 15.3717C33.7263 15.3382 33.763 15.3047 33.7998 15.2706C33.8733 15.201 33.9441 15.1282 34.0124 15.0527C34.0419 15.0199 34.0728 14.9884 34.1016 14.9543C34.1948 14.844 34.2841 14.7305 34.3648 14.6104C34.3648 14.6097 34.3654 14.6097 34.3654 14.6091C34.3654 14.6091 34.3654 14.6097 34.3661 14.6097C34.4389 14.7174 34.517 14.8211 34.6004 14.9208C34.6207 14.9457 34.6444 14.9674 34.6654 14.9917C34.729 15.0645 34.7933 15.1374 34.8622 15.2056C34.8937 15.2371 34.9285 15.2653 34.9613 15.2955C35.023 15.3526 35.0847 15.4104 35.1503 15.4635C35.189 15.495 35.2304 15.5232 35.2704 15.5534C35.3341 15.6013 35.3964 15.6492 35.4627 15.6932C35.5067 15.7221 35.5526 15.7477 35.5972 15.7746C35.6635 15.8146 35.7291 15.8553 35.798 15.8914C35.8459 15.917 35.8958 15.9387 35.945 15.9623C36.0139 15.9951 36.0822 16.0279 36.1531 16.0568C36.2049 16.0778 36.2587 16.0955 36.3119 16.1145C36.3828 16.1401 36.453 16.1651 36.5258 16.1867C36.5816 16.2031 36.638 16.2162 36.6945 16.23C36.7673 16.2477 36.8402 16.2655 36.9143 16.2799C36.9333 16.2832 36.9517 16.2891 36.9708 16.2924V34.6346H36.9694ZM37.6428 15.0094C37.4728 15.0094 37.3074 14.9904 37.1466 14.9595C37.0935 14.949 37.0436 14.9313 36.9924 14.9175C36.8868 14.8906 36.7824 14.8611 36.6827 14.8217C36.6249 14.7987 36.5704 14.7699 36.5147 14.743C36.4267 14.7003 36.3401 14.6557 36.2581 14.6045C36.2036 14.5704 36.1518 14.533 36.0999 14.4949C36.0238 14.4391 35.9509 14.3794 35.8814 14.3158C35.8341 14.2724 35.7882 14.2278 35.7442 14.1812C35.6786 14.1117 35.6189 14.0375 35.5618 13.9614C35.5244 13.9115 35.4857 13.8629 35.4522 13.8104C35.3971 13.7245 35.3498 13.6333 35.3052 13.5407C35.2809 13.4908 35.2527 13.4429 35.231 13.3911C35.1812 13.2684 35.1431 13.1404 35.1116 13.0098C35.105 12.9829 35.0939 12.958 35.0886 12.9311C35.0886 12.9297 35.0886 12.9284 35.088 12.9271H40.1857C39.9475 14.113 38.8982 15.0094 37.6428 15.0094Z" fill="white"/>
<path d="M11.7549 19.0532H11.2851V17.4244C11.2851 17.053 10.9838 16.7511 10.6117 16.7511C10.2403 16.7511 9.93843 17.0523 9.93843 17.4244V19.0532H9.46855C8.79261 19.0532 8.24268 19.6032 8.24268 20.2791V31.1853C8.24268 31.8606 8.79261 32.4105 9.46855 32.4105H9.93843V33.9304C9.93843 34.3025 10.2396 34.6037 10.6117 34.6037C10.9832 34.6037 11.2851 34.3025 11.2851 33.9304V32.4105H11.7549C12.4309 32.4105 12.9808 31.8606 12.9808 31.1853V20.2791C12.9808 19.6032 12.4309 19.0532 11.7549 19.0532ZM11.6348 31.0646H9.58996V20.3992H11.6348V31.0646ZM25.8643 19.0532H25.3944V17.4244C25.3944 17.053 25.0932 16.7511 24.7211 16.7511C24.3497 16.7511 24.0478 17.0523 24.0478 17.4244V19.0532H23.5779C22.902 19.0532 22.3521 19.6032 22.3521 20.2791V31.1853C22.3521 31.8606 22.902 32.4105 23.5779 32.4105H24.0478V33.9304C24.0478 34.3025 24.349 34.6037 24.7211 34.6037C25.0926 34.6037 25.3944 34.3025 25.3944 33.9304V32.4105H25.8643C26.5402 32.4105 27.0902 31.8606 27.0902 31.1853V20.2791C27.0902 19.6032 26.5396 19.0532 25.8643 19.0532ZM25.7436 31.0646H23.6987V20.3992H25.7436V31.0646ZM19.0413 20.7286H18.5104V17.4251C18.5104 17.0536 18.2091 16.7518 17.8371 16.7518C17.465 16.7518 17.1637 17.053 17.1637 17.4251V20.7286H16.6328C15.9799 20.7286 15.4483 21.2595 15.4483 21.9132V29.1155C15.4483 29.7685 15.9799 30.3 16.6328 30.3H17.1637V33.9304C17.1637 34.3025 17.465 34.6037 17.8371 34.6037C18.2091 34.6037 18.5104 34.3025 18.5104 33.9304V30.3H19.0413C19.6942 30.3 20.2265 29.7691 20.2265 29.1155V21.9132C20.2258 21.2595 19.6942 20.7286 19.0413 20.7286ZM18.8798 28.9534H16.7943V22.0746H18.8798V28.9534ZM33.1224 20.7286H32.5915V17.4251C32.5915 17.0536 32.2903 16.7518 31.9182 16.7518C31.5468 16.7518 31.2449 17.053 31.2449 17.4251V20.7286H30.714C30.061 20.7286 29.5295 21.2595 29.5295 21.9132V29.1155C29.5295 29.7685 30.061 30.3 30.714 30.3H31.2456V33.9304C31.2456 34.3025 31.5468 34.6037 31.9189 34.6037C32.2903 34.6037 32.5922 34.3025 32.5922 33.9304V30.3H33.1231C33.7761 30.3 34.3083 29.7691 34.3083 29.1155V21.9132C34.3076 21.2595 33.7761 20.7286 33.1224 20.7286ZM32.9616 28.9534H30.8761V22.0746H32.9616V28.9534Z" fill="white"/>
</svg>
