<svg width="43" height="42" viewBox="0 0 43 42" fill="none" xmlns="http://www.w3.org/2000/svg">
<g clip-path="url(#clip0_40_3180)">
<path d="M9.07846 27.5526C10.1957 28.1999 11.5533 28.4837 12.9339 28.5592C16.2554 28.7405 19.5785 29.0177 22.9212 28.8118C23.3314 28.8348 23.7473 28.8635 24.1615 28.8799C26.7865 28.9849 29.4066 29.0161 32.016 28.7577C32.7543 28.6847 33.3745 28.3959 33.3195 27.8258C33.2695 27.3065 32.7453 26.9235 31.9816 26.8628C31.3959 26.816 30.8077 26.7676 30.2187 26.729C30.2187 26.6987 30.2187 26.6692 30.2187 26.638C30.2138 26.5158 30.2056 26.3862 30.1941 26.2508C30.1523 25.7958 30.0613 25.3466 29.9226 24.9112C29.7755 24.4457 29.5768 23.998 29.3303 23.5766L29.2368 23.4125L29.1351 23.2542C29.0662 23.1492 28.9989 23.0393 28.9251 22.9359C28.7766 22.73 28.6257 22.52 28.4608 22.3223C28.1376 21.9179 27.7832 21.5365 27.4166 21.1599C27.2312 20.9762 27.0458 20.7859 26.853 20.6062L26.5642 20.3339L26.4912 20.2658L26.4264 20.2026L26.2976 20.0771C26.2115 19.9951 26.1336 19.9049 26.0515 19.8204L25.94 19.6875C25.9023 19.6432 25.8637 19.5997 25.8309 19.5538C25.6946 19.3821 25.5745 19.1981 25.4724 19.0042C25.3796 18.8323 25.3119 18.6481 25.2714 18.457C25.2375 18.2898 25.2337 18.1178 25.2599 17.9492C25.2732 17.8673 25.2943 17.7868 25.3231 17.7089C25.3461 17.6474 25.3735 17.5876 25.4051 17.5301C25.6655 17.6366 25.9355 17.7177 26.2115 17.7721C26.638 17.8566 27.0733 17.8886 27.5076 17.8672C27.9258 17.8476 28.3413 17.7894 28.7487 17.6933C28.9497 17.6457 29.1482 17.5916 29.3459 17.5292L29.4222 17.5038L30.7864 18.434L31.2277 18.7343L31.2417 18.7433L31.263 18.7564L31.3065 18.7835L31.3942 18.8368L31.4828 18.8885C31.5132 18.9049 31.5444 18.9189 31.5755 18.9336C31.6379 18.9632 31.6994 18.9935 31.7634 19.0156C31.8274 19.0378 31.893 19.0632 31.9578 19.0854C32.4892 19.2555 33.0587 19.2666 33.5963 19.1174C34.134 18.9681 34.6163 18.665 34.9839 18.2454C35.0338 18.1905 35.0804 18.1327 35.1234 18.0723L35.1915 17.9788L35.2243 17.932C35.2325 17.9189 35.2366 17.9123 35.2432 17.9017L35.3801 17.6777L35.6541 17.22L36.2005 16.3037L36.3645 16.0256L36.3883 15.9846L36.4121 15.937L36.4589 15.8419L36.504 15.7459L36.5425 15.6466C36.6472 15.382 36.7105 15.1028 36.7304 14.8189C36.7747 14.2471 36.6516 13.6747 36.376 13.1717C36.2363 12.9211 36.0618 12.6916 35.8576 12.4901C35.8056 12.4408 35.7531 12.3924 35.7001 12.3449L35.5959 12.2563L35.3924 12.0832L33.7715 10.6969C32.7817 9.85467 31.7885 9.01631 30.7921 8.18178L30.6568 7.68139L30.5985 7.46483L30.5698 7.35819L30.5501 7.29092L30.5255 7.20889C30.4582 6.99422 30.3703 6.78654 30.263 6.58874C30.0478 6.1918 29.7569 5.84093 29.4066 5.55596C29.2321 5.41352 29.0442 5.28825 28.8455 5.1819L28.6946 5.10643L28.5912 5.05803L28.3903 4.96452C27.5749 4.5817 26.7576 4.20381 25.9383 3.83085C26.0253 3.14014 26.1103 2.44889 26.1935 1.7571V1.72428C26.198 1.6837 26.2002 1.64289 26.2 1.60206C26.1985 1.30242 26.1132 1.00919 25.9537 0.75551C25.7943 0.501827 25.567 0.297807 25.2977 0.166509C25.0455 0.0414966 24.7649 -0.0150786 24.4839 0.00244667C24.4146 0.00743765 24.3456 0.0162006 24.2772 0.0286967L24.2017 0.0451029L24.0557 0.082017C23.9557 0.105806 23.8548 0.126314 23.7547 0.155025L23.4585 0.246079L23.3101 0.295298L23.1657 0.356001L22.8778 0.479869C22.7842 0.526626 22.6924 0.576665 22.6005 0.625884L22.4627 0.700533C22.4176 0.726783 22.3741 0.756314 22.3306 0.782564L22.0681 0.953189C21.9861 1.01471 21.904 1.07788 21.822 1.14104L21.6998 1.2362L21.5849 1.33874C21.5087 1.40764 21.4307 1.47491 21.3577 1.54545C21.0718 1.82799 20.8102 2.13424 20.576 2.46092C20.3542 2.77504 20.1541 3.10393 19.9771 3.4453C19.8962 3.60335 19.8202 3.76276 19.7491 3.92354L19.5498 3.99327L19.1831 4.12288C19.0625 4.17209 18.9427 4.2246 18.823 4.27545L18.1003 4.59374L17.3997 4.95303C16.4643 5.44649 15.5859 6.04123 14.7805 6.72655C13.9698 7.41376 13.2385 8.18939 12.6001 9.03901C11.9729 9.88964 11.435 10.8025 10.9947 11.7633C10.5603 12.7123 10.2191 13.7014 9.97588 14.7164C9.7328 15.7173 9.56824 16.7357 9.4837 17.7622C9.33009 19.7889 9.44761 21.8271 9.83315 23.8227C10.0013 24.7296 10.2721 25.6143 10.6403 26.46C10.1719 26.4551 9.70354 26.4452 9.23596 26.428C9.05796 26.4214 8.77823 26.6396 8.69046 26.7947C8.51327 27.0957 8.73967 27.3566 9.07846 27.5526ZM11.7551 17.1019C12.0898 15.0363 12.7699 13.0471 13.8371 11.3162C13.929 11.1521 14.0422 10.9955 14.148 10.8371L14.3121 10.6009L14.3941 10.4828C14.422 10.4442 14.4523 10.4081 14.4819 10.3704L14.833 9.92085C14.8625 9.88393 14.8896 9.84456 14.9215 9.80928L15.0167 9.70346L15.207 9.49182C15.4531 9.19979 15.7353 8.94713 16.0052 8.67889C16.0708 8.60999 16.1471 8.55256 16.2193 8.49022L16.4375 8.30647C16.5835 8.18506 16.7238 8.05545 16.8821 7.94799C18.1198 7.02353 19.4957 6.3004 20.959 5.80534L20.9845 5.79631C21.1171 5.74966 21.2375 5.67385 21.3369 5.57447C21.4362 5.47509 21.512 5.35467 21.5587 5.2221C21.7141 4.77271 21.9133 4.33968 22.1534 3.92928C22.3828 3.54063 22.6655 3.18609 22.9934 2.876C23.3085 2.57973 23.676 2.34468 24.0771 2.18284L24.1222 2.16643L23.8433 4.42967V4.45182C23.8222 4.62488 23.8568 4.80017 23.942 4.95224C24.0273 5.10432 24.1588 5.22527 24.3174 5.29756L26.0401 6.08096L25.9318 5.97268C25.9712 6.00959 26.0073 6.04569 26.0401 6.08096L27.1885 6.69456L27.7627 6.99889L27.7964 7.01694L27.8169 7.03006L27.8587 7.05549C27.8849 7.07518 27.9137 7.09077 27.9407 7.11128C27.9896 7.14923 28.0359 7.19034 28.0794 7.23432C28.2579 7.41243 28.3824 7.63736 28.4387 7.88319L28.7356 9.12842C28.7789 9.31316 28.8783 9.47995 29.0203 9.60585L29.076 9.65506C30.1342 10.5973 31.2007 11.5333 32.2753 12.463L33.8929 13.8575L34.0955 14.0306L34.1973 14.1176C34.2072 14.1253 34.2163 14.1341 34.2243 14.1438L34.2407 14.1602C34.2843 14.2026 34.3208 14.2516 34.349 14.3054C34.3764 14.3591 34.3974 14.4158 34.4114 14.4744C34.4219 14.5337 34.4252 14.594 34.4212 14.654C34.4172 14.713 34.4036 14.7709 34.381 14.8255C34.3702 14.8535 34.3578 14.8809 34.3441 14.9075L34.3047 14.969L34.2457 15.0699L33.7059 15.9936L33.4368 16.4555L33.3023 16.6868L33.2859 16.7155L33.2777 16.7303L33.2695 16.736L33.2637 16.7434C33.2619 16.7478 33.2587 16.7515 33.2547 16.754C33.2167 16.7963 33.1738 16.8337 33.1267 16.8656C33.0777 16.8951 33.0254 16.9188 32.9709 16.9362C32.9149 16.951 32.8573 16.959 32.7994 16.9599C32.7439 16.9583 32.6888 16.9498 32.6354 16.9345C32.58 16.916 32.5269 16.8912 32.4771 16.8607L32.0242 16.5703L30.2294 15.3973C30.055 15.2846 29.8555 15.2166 29.6486 15.1995C29.4417 15.1823 29.2338 15.2164 29.0432 15.2988L28.9981 15.3185L28.9292 15.3489L28.8299 15.389C28.7619 15.4161 28.6897 15.4415 28.6175 15.4662C28.4723 15.5154 28.3246 15.558 28.1762 15.5941C27.8883 15.6662 27.594 15.7094 27.2976 15.7229C27.0281 15.7367 26.7581 15.7143 26.4945 15.6565C26.2566 15.6038 26.0288 15.5126 25.8202 15.3866L25.7751 15.3595C25.5555 15.2288 25.2999 15.1716 25.0455 15.1962C24.7912 15.2209 24.5513 15.3261 24.3609 15.4965L24.31 15.5424L24.2772 15.5736L24.2206 15.6302C24.1837 15.6671 24.1525 15.7016 24.1197 15.7369C24.0574 15.8066 23.9983 15.8771 23.9425 15.9493C23.8312 16.0931 23.7309 16.245 23.6423 16.4038C23.4575 16.7313 23.3265 17.0864 23.2543 17.4554C23.1828 17.8321 23.1756 18.2182 23.233 18.5973C23.2885 18.9537 23.3945 19.3003 23.548 19.6268C23.6865 19.9236 23.8562 20.2049 24.0541 20.466L24.196 20.6514L24.3437 20.8236C24.4413 20.9417 24.5455 21.0418 24.6472 21.1517C24.7489 21.2617 24.8555 21.3503 24.9605 21.4495C25.0655 21.5488 25.1738 21.6324 25.2813 21.7243L25.8276 22.1771C26.5421 22.7825 27.2172 23.4027 27.7717 24.0556C28.0377 24.371 28.2777 24.7074 28.4895 25.0614C28.6889 25.4103 28.8537 25.7779 28.9817 26.1589C29.0011 26.2199 29.0235 26.2799 29.049 26.3386C29.0752 26.4009 29.1072 26.4641 29.131 26.5322C29.1515 26.5789 29.1745 26.6257 29.1974 26.6733C28.7504 26.6544 28.3025 26.6446 27.8562 26.6487C25.648 26.6708 23.4413 26.798 21.2339 26.8808C18.1987 26.3287 15.1127 26.4428 12.034 26.4583C12.034 26.4099 12.0283 26.3599 12.0242 26.309C11.9758 25.5634 11.8331 24.5749 11.6797 23.4076C11.4001 21.3131 11.4255 19.1891 11.7551 17.1019ZM6.86936 41.9122H6.93089C11.4319 42.0336 16.0101 42.0106 20.5604 41.9409C25.1107 41.8712 29.6396 41.7637 34.1776 41.7104C34.6952 41.703 35.3441 41.5283 35.486 41.4159C35.7665 41.1928 34.9347 41.0197 33.8503 40.877C30.263 40.4127 26.3797 40.1042 22.5693 39.9943L14.7247 39.7663C12.5148 39.7072 10.3103 39.6607 8.11131 39.6268C8.11788 38.8612 8.12253 38.0975 8.12526 37.3357C8.85558 36.7834 9.50237 36.1286 10.0456 35.3915C10.5479 34.7084 10.9562 33.961 11.2597 33.1693L12.3917 33.1488C13.5508 33.1718 14.7091 33.2005 15.869 33.2169C20.8147 33.2874 25.7587 33.3235 30.6888 33.262C31.3787 34.901 32.5197 36.3105 33.9791 37.3267C34.0086 37.6417 34.0545 37.946 34.1119 38.2413C34.1866 38.6252 34.276 38.9952 34.3712 39.3331C34.4663 39.6711 34.5557 39.9722 34.646 40.2068C34.7362 40.4414 34.8256 40.6087 34.9257 40.6719C35.1062 40.7867 35.2768 40.5398 35.4573 39.9205C35.5653 39.5273 35.6475 39.1275 35.7033 38.7237C35.7825 38.1717 35.8302 37.6158 35.8461 37.0584L35.8559 36.7196C35.8589 36.5889 35.8298 36.4595 35.7712 36.3427C35.7125 36.2258 35.6262 36.1252 35.5196 36.0494L35.4786 36.0207C34.0118 34.9889 32.9518 33.4768 32.482 31.7461C32.4274 31.5459 32.3095 31.3688 32.146 31.241C31.9825 31.1133 31.7821 31.0419 31.5747 31.0373H31.5321C29.77 31.0021 28.0047 30.9807 26.241 30.9865C20.9632 31.0053 15.6902 31.1005 10.4164 31.1792H10.3901C10.211 31.1823 10.0377 31.2429 9.89583 31.3523C9.75397 31.4617 9.65115 31.6138 9.60264 31.7863C9.37864 32.5835 9.0277 33.3393 8.56331 34.0249C8.61335 33.9954 8.66256 33.9634 8.71178 33.9322C8.66464 33.9667 8.61501 33.9977 8.56331 34.0249C7.95583 34.7729 7.21933 35.406 6.38866 35.8944C6.26074 35.9703 6.15358 36.0767 6.07673 36.2041C5.99987 36.3315 5.9557 36.4759 5.94815 36.6245L5.94405 36.7205C5.88061 38.069 5.83112 39.4217 5.79557 40.7785C5.78763 41.0713 5.8963 41.3552 6.09768 41.5678C6.29905 41.7804 6.57663 41.9043 6.86936 41.9122Z" fill="#23BDB9"/>
<path d="M26.4207 35.5761C25.7439 35.467 25.0614 35.3481 24.3822 35.362C23.2896 35.3842 22.1977 35.5113 21.1051 35.5942C19.147 34.8748 17.1446 35.2874 15.1644 35.1373C15.0766 35.1307 14.938 35.3489 14.8945 35.5039C14.859 35.6369 14.8581 35.7768 14.892 35.9102C14.9259 36.0436 14.9934 36.1661 15.0881 36.266C15.5665 36.8396 16.2518 37.2013 16.9953 37.2725C18.6359 37.4538 20.2831 37.7311 21.9377 37.5252C22.1419 37.5482 22.3478 37.5769 22.5513 37.5933C23.849 37.6983 25.1467 37.7294 26.4379 37.4711C26.8046 37.398 27.1106 37.1093 27.0827 36.5392C27.0581 36.0199 26.7972 35.6368 26.4207 35.5761Z" fill="#23BDB9"/>
</g>
<defs>
<clipPath id="clip0_40_3180">
<rect width="42" height="42" fill="#23BDB9" transform="translate(0.270752)"/>
</clipPath>
</defs>
</svg>
