<?xml version="1.0" encoding="UTF-8"?>
<svg id="Layer_2" data-name="Layer 2" xmlns="http://www.w3.org/2000/svg" viewBox="0 0 203.09 203.06">
  <defs>
    <style>
      .cls-1 {
        fill: #00c4a7;
      }
    </style>
  </defs>
  <g id="Layer_1-2" data-name="Layer 1">
    <path class="cls-1" d="M198.71,27.53c-.53-1.12-1.07-2.22-1.7-3.33l-1.23-2.22-57.06,75.36-.64.83,29.43,57.26-.14.96h-31.72l-18.87-36.94-31.59,36.94h-31.29l49.98-57.53-28.5-50.71.16-.97h32.19l17.26,32L177.76,5.39l-1.8-.83c-1.03-.5-2.06-.93-3.13-1.36-5.46-2.1-11.24-3.2-17.16-3.2H47.42C21.25,0,0,21.25,0,47.4v108.27c0,26.14,21.25,47.4,47.42,47.4h108.25c26.14,0,47.42-21.25,47.42-47.4V47.4c0-6.99-1.49-13.67-4.38-19.86ZM49.62,153.81l-.34.36.34-.36,48.38-55.54-48.38,55.54ZM88.79,81.91h-25.85l-5.32,17.7h31.59l-17.35,19.39h-16.62l-14.65,42.23H15.25l26.11-101.12h35.19l12.24,21.81Z"/>
  </g>
</svg>