<svg width="176" height="117" viewBox="0 0 176 117" fill="none" xmlns="http://www.w3.org/2000/svg">
<path d="M96.0759 8.42454C88.643 3.72861 79.465 -0.231803 69.2107 0.0105677C59.3027 0.244523 50.6145 4.3278 43.5656 8.99849C36.5214 13.6675 30.7277 19.3548 25.3368 25.0118C19.5761 31.0559 14.4655 37.4367 10.278 44.1137C1.39915 58.2688 -2.92254 74.1744 2.18106 89.4758C5.69728 100.017 14.0651 110.476 28.6646 114.738C41.1751 118.389 55.3342 117.116 67.9578 114.472C82.6586 111.392 96.4856 106.31 109.455 100.549C120.817 95.5014 131.714 89.8259 141.751 83.499C148.647 79.1531 154.636 74.0162 158.577 68.0478C162.241 62.5002 163.598 56.3601 162.762 50.2706C161.179 38.7462 151.104 28.7484 139.533 21.0935C133.523 17.1179 126.909 13.516 119.846 10.5453C113.499 7.87584 106.942 5.38817 99.9901 3.62594C98.139 3.15634 96.2643 2.75744 94.3919 2.33834C92.9105 2.00845 92.7834 5.10372 93.9868 5.37134C97.1239 6.06984 100.176 7.03428 103.151 8.02396C106.502 9.13819 109.825 10.2608 113.066 11.535C120.136 14.3138 126.85 17.633 133.11 21.2652C139.41 24.9209 145.195 29.0749 150.016 33.7473C152.338 35.9976 154.278 38.2362 155.991 40.7272C156.396 41.3163 156.775 41.9121 157.138 42.5147C157.319 42.8143 157.491 43.1156 157.66 43.4185C157.745 43.57 157.828 43.7215 157.908 43.873C157.936 43.9252 158.24 44.5126 158.094 44.2264C158.73 45.4888 159.255 46.7781 159.679 48.0842C159.728 48.2407 159.775 48.3972 159.825 48.5538C159.693 48.1145 159.844 48.6379 159.86 48.6985C159.945 49.0133 160.02 49.328 160.093 49.6445C160.249 50.3295 160.364 51.0196 160.454 51.7097C160.385 51.1761 160.454 51.7197 160.461 51.8106C160.477 51.9705 160.489 52.1321 160.501 52.292C160.524 52.6135 160.538 52.935 160.548 53.2581C160.557 53.5813 160.555 53.9045 160.548 54.2276C160.548 54.3151 160.522 54.8655 160.548 54.3353C160.536 54.5525 160.52 54.7696 160.503 54.9867C160.449 55.6431 160.357 56.2962 160.242 56.9492C160.213 57.1142 160.178 57.2775 160.145 57.4424C160.034 57.9894 160.235 57.0654 160.107 57.6124C160.016 57.9995 159.91 58.3833 159.797 58.7687C159.354 60.2768 158.906 61.3288 158.204 62.682C155.009 68.8591 149.036 74.3966 142.248 78.7862C132.51 85.0862 121.853 90.7061 110.795 95.764C97.9741 101.626 84.2766 106.849 69.7265 110.146C57.2466 112.974 43.0169 114.612 30.3745 111.35C24.3971 109.806 19.1381 107.152 15.0119 103.708C9.57385 99.1689 6.2107 93.5506 4.19235 87.759C1.70532 80.6141 1.71945 73.3884 3.44812 66.156C5.21919 58.7519 8.69773 51.6103 13.1136 44.8105C17.3623 38.2665 22.5601 32.0456 28.3208 26.126C33.9472 20.3445 39.9717 14.637 47.5458 10.0824C54.1308 6.1237 62.0723 3.03516 70.8782 3.10921C80.3435 3.18832 88.789 6.98715 95.6943 11.3044C96.3655 11.7252 96.7494 10.446 96.7777 10.2457C96.8601 9.62967 96.7659 8.86048 96.0806 8.42623L96.0759 8.42454Z" fill="#17D647"/>
</svg>
