<svg width="142" height="117" viewBox="0 0 142 117" fill="none" xmlns="http://www.w3.org/2000/svg">
<g clip-path="url(#clip0_36_2816)">
<path d="M140.565 4.87735C132.95 8.29744 125.68 12.4446 118.575 16.8174C111.47 21.1901 104.547 25.8523 97.7622 30.7064C87.0146 38.3949 76.6563 46.6152 66.5423 55.12C66.1126 54.5578 65.683 53.9957 65.2534 53.4352C56.3103 41.7477 47.3453 30.0769 38.0687 18.652C37.5716 18.0393 37.1504 18.8472 37.046 19.3C36.8809 20.022 36.8926 21.0554 37.3762 21.6681C46.5518 33.2917 55.4982 45.0937 64.4126 56.9192C62.4818 58.5552 60.5594 60.1996 58.6455 61.8541C46.0008 72.7792 33.7386 84.1402 21.4748 95.4878C16.2097 100.36 10.9496 105.238 5.66939 110.096C5.04263 110.671 5.01905 111.726 5.13361 112.509C5.17405 112.787 5.59863 114.409 6.21527 113.846C18.5044 102.601 30.6925 91.2464 43.0996 80.1328C50.8127 73.2236 58.6034 66.3969 66.5423 59.7452C68.0822 61.7885 69.6221 63.8335 71.1621 65.8785C75.6319 71.8098 80.1119 77.7326 84.6357 83.6235C86.8866 86.5555 89.1476 89.4791 91.4205 92.3942C92.4617 93.729 93.4911 95.0754 94.5323 96.4152C94.5795 96.6222 94.6435 96.8208 94.7244 97.006C95.1305 97.9317 95.7269 98.6167 96.4935 99.2597C96.731 99.4599 96.9871 99.6299 97.2281 99.8117C97.5684 100.229 97.9104 100.643 98.2575 101.054C98.7259 101.609 99.2145 101.222 99.4386 100.673C99.8042 99.7781 99.853 98.3609 99.3611 97.4958C99.2937 97.3779 99.2246 97.2635 99.1521 97.1541C99.1521 97.1541 99.1521 97.1507 99.1521 97.149C99.1404 97.1322 99.1269 97.1171 99.1151 97.1002C98.9618 96.868 98.7966 96.6525 98.6164 96.4522C95.9981 93.049 93.2502 89.74 90.6 86.3603C87.756 82.7332 84.9322 79.0909 82.1185 75.4402C77.6318 69.6183 73.1653 63.7796 68.6989 57.9426C72.8216 54.5158 76.9865 51.1377 81.2003 47.822C94.3201 37.5028 107.959 27.8721 122.17 19.1098C128.379 15.2807 134.721 11.6687 141.015 7.98438C141.819 7.5131 141.591 4.41617 140.564 4.87903L140.565 4.87735Z" fill="#DE4242"/>
<path d="M69.2311 8.42348C63.9137 3.72759 57.348 -0.232777 50.0122 0.00959098C42.9241 0.243544 36.7088 4.32678 31.6661 8.99742C26.6268 13.6664 22.4821 19.3536 18.6255 25.0106C14.5044 31.0546 10.8484 37.4353 7.85273 44.1122C1.50093 58.2672 -1.59073 74.1727 2.06029 89.4738C4.57574 100.015 10.5619 110.474 21.0062 114.736C29.956 118.386 40.0852 117.114 49.1159 114.47C59.6326 111.39 69.5242 106.308 78.8026 100.547C86.9302 95.4994 94.7259 89.8239 101.907 83.4971C106.84 79.1513 111.124 74.0144 113.943 68.0461C116.565 62.4986 117.535 56.3586 116.937 50.2691C115.805 38.7448 108.597 28.7471 100.32 21.0923C96.0199 17.1168 91.2888 13.5149 86.236 10.5442C81.6954 7.87478 77.0049 5.38714 72.0312 3.62492C70.707 3.15533 69.3659 2.75643 68.0264 2.33734C66.9667 2.00745 66.8757 5.10269 67.7366 5.37031C69.9808 6.0688 72.1644 7.03323 74.2923 8.0229C76.6898 9.13712 79.0671 10.2598 81.3854 11.5339C86.4433 14.3127 91.2467 17.6318 95.725 21.264C100.232 24.9197 104.37 29.0736 107.819 33.7459C109.48 35.9963 110.868 38.2348 112.093 40.7258C112.383 41.3149 112.654 41.9107 112.914 42.5133C113.043 42.8129 113.166 43.1141 113.288 43.4171C113.348 43.5686 113.407 43.7201 113.465 43.8715C113.485 43.9237 113.702 44.5111 113.598 44.225C114.053 45.4873 114.428 46.7766 114.732 48.0827C114.767 48.2392 114.801 48.3958 114.836 48.5523C114.742 48.113 114.85 48.6364 114.861 48.697C114.922 49.0118 114.976 49.3265 115.028 49.6429C115.139 50.328 115.222 51.018 115.286 51.7081C115.237 51.1746 115.286 51.7182 115.291 51.8091C115.303 51.969 115.311 52.1306 115.32 52.2905C115.336 52.612 115.347 52.9334 115.353 53.2566C115.36 53.5798 115.358 53.9029 115.353 54.2261C115.353 54.3136 115.335 54.864 115.353 54.3338C115.345 54.5509 115.333 54.768 115.321 54.9851C115.283 55.6416 115.217 56.2946 115.134 56.9477C115.114 57.1126 115.089 57.2759 115.065 57.4408C114.986 57.9878 115.129 57.0638 115.038 57.6108C114.973 57.9979 114.897 58.3817 114.816 58.7671C114.499 60.2752 114.179 61.3271 113.677 62.6803C111.391 68.8574 107.118 74.3948 102.262 78.7844C95.2954 85.0843 87.6715 90.7042 79.7612 95.762C70.589 101.624 60.7901 106.847 50.3812 110.144C41.4533 112.972 31.2735 114.609 22.2294 111.348C17.9533 109.804 14.1911 107.15 11.2392 103.706C7.34897 99.1669 4.94303 93.5487 3.49914 87.7571C1.71996 80.6123 1.73006 73.3866 2.96673 66.1543C4.23372 58.7503 6.72221 51.6088 9.88127 44.809C12.9207 38.2651 16.6391 32.0443 20.7602 26.1248C24.7853 20.3433 29.0951 14.6359 34.5135 10.0813C39.2243 6.12266 44.9055 3.03415 51.2051 3.1082C57.9764 3.18731 64.0182 6.9861 68.9581 11.3033C69.4383 11.7241 69.7129 10.4449 69.7331 10.2446C69.7921 9.62859 69.7247 8.85941 69.2344 8.42516L69.2311 8.42348Z" fill="#DE4242"/>
</g>
<defs>
<clipPath id="clip0_36_2816">
<rect width="141" height="117" fill="white" transform="translate(0.5)"/>
</clipPath>
</defs>
</svg>
