<svg width="191" height="55" viewBox="0 0 191 55" fill="none" xmlns="http://www.w3.org/2000/svg">
<g clip-path="url(#clip0_35_2389)">
<path d="M24.7665 22.1858H23.8764L20.585 16.2784H21.4777L24.7665 22.1858Z" fill="#474747"/>
<path d="M53.4347 7.45666C53.2922 7.1533 53.147 6.85536 52.9776 6.55471L52.6468 5.95341L37.3029 26.3651L37.1308 26.5899L45.0448 42.0991L45.0071 42.3592H36.4774L31.4031 32.3537L22.9083 42.3592H14.4941L27.9342 26.7768L20.2703 13.0417L20.3133 12.779H28.9695L33.6108 21.4464L47.8011 1.45991L47.3171 1.2351C47.0401 1.09967 46.7631 0.983207 46.4754 0.866739C45.0071 0.297942 43.4528 0 41.8609 0H12.7516C5.71429 0 0 5.75569 0 12.8386V42.1641C0 49.2443 5.71429 55.0027 12.7516 55.0027H41.8609C48.8902 55.0027 54.6125 49.247 54.6125 42.1641V12.8386C54.6125 10.9453 54.2119 9.13597 53.4347 7.45937V7.45666ZM53.7171 42.1641C53.7171 48.7486 48.3981 54.1008 41.8609 54.1008H12.7516C6.2064 54.1008 0.895464 48.7486 0.895464 42.1641V12.8386C0.895464 6.25406 6.20909 0.90195 12.7516 0.90195H41.8609C43.2996 0.90195 44.706 1.16197 46.0371 1.6766L33.7695 18.9626L29.7547 11.4572H19.2189L19.2108 11.5033L18.9096 13.2774L19.122 13.6566L20.5903 16.2784L23.8817 22.1858L26.3584 26.617L13.3486 41.6603L13.2572 41.7579L13.0071 43.6755H23.5106L31.1395 34.7048L35.6841 43.6755H46.1473L46.4055 41.877L38.6797 26.7172L52.7087 8.06338C53.3729 9.56663 53.7171 11.162 53.7171 12.8386V42.1641Z" fill="#00C4A7"/>
<path d="M53.7171 12.8386V42.1642C53.7171 48.7487 48.3981 54.1008 41.861 54.1008H12.7517C6.20644 54.1008 0.895508 48.7487 0.895508 42.1642V12.8386C0.895508 6.25409 6.20913 0.901978 12.7517 0.901978H41.861C43.2996 0.901978 44.706 1.162 46.0371 1.67663L33.7695 18.9626L29.7547 11.4572H19.2189L19.2108 11.5033L18.9097 13.2774L19.1221 13.6566L20.5903 16.2785H11.1275L4.10627 43.6674H10.9204L14.8599 32.2292H19.3292L23.9947 26.9773H15.4999L16.9305 22.1831H23.8818L26.3584 26.6143L13.3486 41.6577L13.2572 41.7552L13.0071 43.6728H23.5107L31.1396 34.7021L35.6841 43.6728H46.1474L46.4055 41.8744L38.6798 26.7145L52.7087 8.0607C53.3729 9.56395 53.7171 11.1593 53.7171 12.8359V12.8386Z" fill="#00C4A7"/>
<path d="M119.559 40.9942C119.871 39.3365 118.298 39.1876 117.464 39.1876H115.526L114.272 45.7531H116.642C117.249 45.7531 119.094 45.5987 119.414 43.8896C119.567 43.115 119.199 42.5543 118.419 42.3403C119.083 42.0695 119.465 41.5223 119.557 40.9969L119.559 40.9942ZM118.398 43.8869C118.263 44.6426 117.575 44.9378 116.733 44.9378H115.407L115.808 42.8225H117.134C117.983 42.8225 118.548 43.0581 118.395 43.8869H118.398ZM118.54 40.9942C118.398 41.7255 117.795 42.0153 116.919 42.0153H115.972L116.356 39.9974H117.316C118.182 39.9974 118.685 40.2683 118.54 40.9969V40.9942Z" fill="#F2F2F2"/>
<path d="M124.254 41.0565L123.8 43.4806C123.504 44.7238 122.8 45.0949 122.216 45.0949C121.713 45.0949 121.321 44.9053 121.474 44.1036L122.047 41.0592H121.019L120.436 44.1496C120.231 45.2493 120.64 45.8939 121.689 45.8939C122.555 45.8939 123.192 45.4795 123.539 44.8322L123.367 45.7531H124.394L125.279 41.0565H124.252H124.254Z" fill="#F2F2F2"/>
<path d="M126.884 39.3203L126.706 40.3089H127.879L128.056 39.3203H126.884ZM126.623 41.0565L125.738 45.7531H126.766L127.65 41.0565H126.623Z" fill="#F2F2F2"/>
<path d="M129.485 39.0928L128.227 45.7504H129.254L130.512 39.0928H129.485Z" fill="#F2F2F2"/>
<path d="M132.723 41.869H134.038L134.18 41.0565H132.884L133.161 39.5532L132.204 39.6453L131.935 41.0565H131.074L130.932 41.869H131.781L131.297 44.4259C131.109 45.3712 131.547 45.7504 132.478 45.7504H133.29L133.443 44.9378H132.852C132.335 44.9378 132.152 44.8512 132.263 44.2634L132.717 41.869H132.723Z" fill="#F2F2F2"/>
<path d="M142.024 39.9947L142.174 39.1848H137.856L136.613 45.7504H137.641L138.213 42.7493H140.996L141.147 41.9313H138.367L138.74 39.9947H142.024Z" fill="#F2F2F2"/>
<path d="M144.581 40.9156C143.331 40.9156 141.97 41.7173 141.639 43.4183C141.319 45.122 142.39 45.8939 143.635 45.8939C144.88 45.8939 146.238 45.122 146.56 43.4183C146.88 41.7173 145.826 40.9156 144.581 40.9156ZM145.547 43.4156C145.358 44.4178 144.769 45.0922 143.785 45.0922C142.801 45.0922 142.478 44.4178 142.667 43.4156C142.847 42.4161 143.454 41.7146 144.42 41.7146C145.385 41.7146 145.732 42.4188 145.544 43.4156H145.547Z" fill="#F2F2F2"/>
<path d="M150.368 41.0565C149.752 41.0565 149.169 41.4004 148.814 42.0478L149.002 41.0565H147.975L147.09 45.7531H148.117L148.518 43.6242C148.741 42.3918 149.287 41.869 150.121 41.869H150.863L151.005 41.0565H150.371H150.368Z" fill="#F2F2F2"/>
<path d="M158.631 41.0294C158.871 39.7672 158.129 39.0386 156.69 39.0386C155.332 39.0386 154.283 39.7861 154.098 40.7314C153.926 41.6686 154.463 42.2455 155.959 42.5949C157.05 42.8387 157.556 43.1204 157.408 43.9302C157.279 44.5857 156.682 45.0922 155.698 45.0922C154.654 45.0922 154.09 44.4611 154.359 43.1122L153.321 43.2098C152.99 44.9757 153.918 45.8939 155.55 45.8939C157.182 45.8939 158.215 45.076 158.438 43.895C158.669 42.6707 157.817 42.1643 156.343 41.823C155.386 41.6009 155.017 41.33 155.128 40.7341C155.224 40.1491 155.808 39.843 156.539 39.843C157.271 39.843 157.749 40.2953 157.596 41.1296L158.634 41.0321L158.631 41.0294Z" fill="#F2F2F2"/>
<path d="M163.373 41.0566L162.916 43.4808C162.615 44.724 161.907 45.0951 161.332 45.0951C160.834 45.0951 160.436 44.9055 160.59 44.1038L161.162 41.0593H160.135L159.544 44.1498C159.347 45.2495 159.759 45.8941 160.797 45.8941C161.663 45.8941 162.3 45.4797 162.658 44.8324L162.485 45.7533H163.518L164.403 41.0566H163.376H163.373Z" fill="#F2F2F2"/>
<path d="M167.699 41.7146C168.495 41.7146 168.753 42.1643 168.772 42.8847L169.81 42.7926C169.864 41.4059 169.079 40.9129 167.85 40.9129C166.621 40.9129 165.239 41.7228 164.919 43.4237C164.599 45.1193 165.65 45.8912 166.903 45.8912C168.156 45.8912 169.095 45.4335 169.568 44.0657L168.568 43.9736C168.28 44.7049 167.836 45.0922 167.065 45.0922C166.08 45.0922 165.758 44.3636 165.935 43.4264C166.115 42.5055 166.723 41.7146 167.699 41.7146Z" fill="#F2F2F2"/>
<path d="M173.244 41.7148C174.04 41.7148 174.29 42.1644 174.317 42.8849L175.355 42.7928C175.409 41.406 174.624 40.9131 173.398 40.9131C172.171 40.9131 170.787 41.7229 170.461 43.4239C170.141 45.1195 171.195 45.8914 172.446 45.8914C173.696 45.8914 174.637 45.4337 175.113 44.0658L174.11 43.9738C173.823 44.7051 173.379 45.0924 172.607 45.0924C171.623 45.0924 171.3 44.3638 171.478 43.4266C171.658 42.5057 172.266 41.7148 173.242 41.7148H173.244Z" fill="#F2F2F2"/>
<path d="M178.921 40.9156C177.716 40.9156 176.328 41.7065 176.006 43.4264C175.672 45.1464 176.756 45.8939 177.971 45.8939C179.187 45.8939 180.152 45.3278 180.475 44.3907L179.493 44.2932C179.351 44.6074 179.026 45.0949 178.125 45.0949C177.224 45.0949 176.829 44.4394 176.987 43.6269H180.655L180.679 43.4291C181.013 41.7092 180.125 40.9183 178.918 40.9183L178.921 40.9156ZM179.805 42.9308H177.122C177.213 42.3918 177.848 41.7173 178.757 41.7173C179.666 41.7173 179.902 42.3918 179.803 42.9308H179.805Z" fill="#F2F2F2"/>
<path d="M185.789 42.3809C185.966 41.4708 185.216 40.9156 184.105 40.9156C182.995 40.9156 182.032 41.4167 181.871 42.2942C181.717 43.0418 182.263 43.5185 183.043 43.6241L183.793 43.7162C184.285 43.7785 184.732 43.914 184.643 44.4096C184.552 44.8782 184.016 45.0949 183.382 45.0949C182.747 45.0949 182.105 44.7238 182.247 43.9519L181.252 44.0386C181.013 45.2899 182.021 45.8939 183.229 45.8939C184.436 45.8939 185.49 45.3387 185.662 44.3988C185.84 43.4643 185.071 43.0581 184.242 42.9578L183.57 42.8576C183.054 42.7953 182.82 42.6355 182.89 42.3078C182.962 41.9123 183.411 41.7146 183.955 41.7146C184.562 41.7146 184.893 41.9746 184.794 42.4811L185.789 42.3809Z" fill="#F2F2F2"/>
<path d="M190.975 42.3809C191.148 41.4708 190.395 40.9155 189.287 40.9155C188.179 40.9155 187.211 41.4166 187.052 42.2942C186.899 43.0417 187.445 43.5185 188.225 43.6241L188.975 43.7162C189.472 43.7785 189.913 43.9139 189.822 44.4096C189.736 44.8782 189.195 45.0948 188.563 45.0948C187.931 45.0948 187.283 44.7238 187.426 43.9518L186.434 44.0385C186.192 45.2898 187.2 45.8939 188.41 45.8939C189.62 45.8939 190.672 45.3386 190.841 44.3987C191.021 43.4643 190.26 43.058 189.421 42.9578L188.76 42.8576C188.23 42.7953 187.999 42.6355 188.071 42.3077C188.144 41.9123 188.598 41.7146 189.133 41.7146C189.741 41.7146 190.075 41.9746 189.975 42.4811L190.975 42.3809Z" fill="#F2F2F2"/>
<path d="M81.7046 17.6409V13.0526H65.5029V34.4123H72.0831V25.6826H80.3009V21.3733H72.0831V17.6409H81.7019H81.7046Z" fill="#F2F2F2"/>
<path d="M94.5477 18.9355V26.3813C94.5477 27.7898 94.3245 28.7676 93.8754 29.3093C93.4263 29.851 92.8509 30.1246 92.1463 30.1246C91.5009 30.1246 91.0008 29.9214 90.6404 29.5124C90.2855 29.1034 90.108 28.4182 90.108 27.4431V18.9328H84.1893V28.7811C84.1893 30.8125 84.6519 32.3158 85.5688 33.2882C86.4912 34.2632 87.7631 34.7535 89.3793 34.7535C90.5974 34.7535 91.6193 34.5341 92.4556 34.098C93.2919 33.6619 94.1174 32.9279 94.9349 31.8987V34.4068H100.429V18.9328H94.545L94.5477 18.9355Z" fill="#F2F2F2"/>
<path d="M117.942 26.9581C117.437 26.2214 116.705 25.6526 115.751 25.2544C114.796 24.859 113.339 24.5475 111.381 24.3254C110.09 24.1683 109.249 23.9922 108.867 23.7999C108.479 23.6049 108.286 23.3205 108.286 22.9386C108.286 22.6 108.439 22.3102 108.74 22.0746C109.047 21.8362 109.528 21.717 110.195 21.717C110.862 21.717 111.411 21.8714 111.87 22.1856C112.207 22.4185 112.451 22.7815 112.594 23.2772L118.179 22.7219C117.792 21.7116 117.308 20.9099 116.724 20.3167C116.141 19.7262 115.412 19.2902 114.541 19.0085C113.669 18.7268 112.317 18.5859 110.486 18.5859C108.654 18.5859 107.366 18.7674 106.334 19.1331C105.298 19.496 104.492 20.0458 103.903 20.7853C103.314 21.522 103.021 22.4023 103.021 23.418C103.021 24.3498 103.292 25.1813 103.838 25.9072C104.384 26.6358 105.054 27.1531 105.847 27.4565C106.643 27.7652 108.063 28.093 110.106 28.4559C111.475 28.697 112.319 28.9028 112.637 29.0654C113.08 29.301 113.304 29.6314 113.304 30.054C113.304 30.4332 113.132 30.7474 112.795 31.002C112.362 31.3405 111.749 31.5112 110.959 31.5112C110.235 31.5112 109.657 31.3595 109.224 31.0589C108.791 30.7582 108.453 30.2571 108.211 29.5583L102.367 30.1109C102.703 31.5979 103.467 32.7436 104.661 33.5507C105.85 34.3579 107.848 34.7587 110.652 34.7587C112.639 34.7587 114.207 34.5068 115.361 34.0085C116.514 33.5101 117.359 32.8384 117.891 31.9933C118.426 31.1482 118.695 30.2815 118.695 29.3877C118.695 28.4938 118.443 27.6948 117.934 26.9581H117.942Z" fill="#F2F2F2"/>
<path d="M121.135 18.9355V34.4095H127.021V18.9355H121.135ZM121.135 13.0498V17.0856H127.021V13.0498H121.135Z" fill="#F2F2F2"/>
<path d="M145.215 21.2838C143.642 19.4853 141.316 18.5888 138.243 18.5888C135.553 18.5888 133.418 19.3553 131.834 20.883C130.253 22.4106 129.463 24.358 129.463 26.7172C129.463 29.2497 130.398 31.3001 132.27 32.8656C133.792 34.1278 135.787 34.7589 138.256 34.7589C141.023 34.7589 143.193 34.0005 144.755 32.481C146.323 30.9588 147.106 29.0086 147.106 26.6305C147.106 24.5151 146.476 22.7329 145.215 21.2838ZM140.375 29.7779C139.829 30.4279 139.135 30.7529 138.283 30.7529C137.43 30.7529 136.747 30.4198 136.196 29.7616C135.642 29.1034 135.365 28.0823 135.365 26.7009C135.365 25.3196 135.642 24.3282 136.204 23.6646C136.761 22.9983 137.473 22.6652 138.329 22.6652C139.138 22.6652 139.818 22.9929 140.37 23.6484C140.918 24.3039 141.192 25.3033 141.192 26.6441C141.192 28.0823 140.921 29.1224 140.375 29.7779Z" fill="#F2F2F2"/>
<path d="M164.211 20.0542C163.292 19.0791 162.014 18.5889 160.388 18.5889C159.183 18.5889 158.158 18.811 157.322 19.2525C156.48 19.694 155.652 20.4307 154.832 21.4599V18.9383H149.352V34.4123H155.238V26.98C155.238 25.5742 155.458 24.5965 155.905 24.0547C156.349 23.5076 156.927 23.2395 157.639 23.2395C158.285 23.2395 158.785 23.4399 159.142 23.8408C159.5 24.2443 159.678 24.9323 159.678 25.902V34.4123H165.591V24.5775C165.591 22.5379 165.128 21.0266 164.211 20.0542Z" fill="#F2F2F2"/>
<path d="M182.628 23.3965L189.225 13.0498H182.082L178.431 19.6235L174.677 13.0498H167.459L174.109 23.28L166.795 34.4095H174.112L178.299 27.5487L182.486 34.4095H189.846L182.626 23.3965H182.628Z" fill="#F2F2F2"/>
</g>
<defs>
<clipPath id="clip0_35_2389">
<rect width="191" height="55" fill="white"/>
</clipPath>
</defs>
</svg>
