<svg width="28" height="28" viewBox="0 0 28 28" fill="none" xmlns="http://www.w3.org/2000/svg">
<g clip-path="url(#clip0_36_2875)">
<path d="M27.7087 14.0003C27.7087 12.927 27.1545 11.982 26.3145 11.4395C25.6203 10.9903 25.037 10.3895 24.7278 9.62533C24.7103 9.58449 24.6928 9.54366 24.6753 9.50283C24.3545 8.74449 24.337 7.90449 24.512 7.09949C24.722 6.12533 24.4478 5.06949 23.6895 4.31116C22.9312 3.55283 21.8753 3.27866 20.9012 3.48866C20.0962 3.66366 19.2562 3.64616 18.4978 3.32533C18.457 3.30783 18.4162 3.29033 18.3753 3.27283C17.6112 2.96366 17.0103 2.38033 16.5612 1.68616C16.0187 0.846159 15.0737 0.291992 14.0003 0.291992C12.927 0.291992 11.982 0.846159 11.4395 1.68616C10.9903 2.38033 10.3895 2.96366 9.62533 3.27283C9.58449 3.29033 9.54366 3.30783 9.50283 3.32533C8.74449 3.64616 7.90449 3.66366 7.09949 3.48866C6.12533 3.27866 5.06366 3.54699 4.30533 4.30533C3.54699 5.06366 3.27283 6.11949 3.48283 7.09366C3.65783 7.89866 3.64033 8.73866 3.31949 9.49699C3.30199 9.53783 3.28449 9.57866 3.26699 9.61949C2.95783 10.3837 2.37449 10.9845 1.68033 11.4337C0.846159 11.982 0.291992 12.927 0.291992 14.0003C0.291992 15.0737 0.846159 16.0187 1.68616 16.5612C2.38033 17.0103 2.96366 17.6112 3.27283 18.3753C3.29033 18.4162 3.30783 18.457 3.32533 18.4978C3.64616 19.2562 3.66366 20.0962 3.48866 20.9012C3.27866 21.8753 3.55283 22.9312 4.31116 23.6895C5.06949 24.4478 6.12533 24.722 7.09949 24.512C7.90449 24.337 8.74449 24.3545 9.50283 24.6753C9.54366 24.6928 9.58449 24.7103 9.62533 24.7278C10.3895 25.037 10.9903 25.6203 11.4395 26.3145C11.982 27.1545 12.927 27.7087 14.0003 27.7087C15.0737 27.7087 16.0187 27.1545 16.5612 26.3145C17.0103 25.6203 17.6112 25.037 18.3753 24.7278C18.4162 24.7103 18.457 24.6928 18.4978 24.6753C19.2562 24.3545 20.0962 24.337 20.9012 24.512C21.8753 24.722 22.9312 24.4478 23.6895 23.6895C24.4478 22.9312 24.722 21.8753 24.512 20.9012C24.337 20.0962 24.3545 19.2562 24.6753 18.4978C24.6928 18.457 24.7103 18.4162 24.7278 18.3753C25.037 17.6112 25.6203 17.0103 26.3145 16.5612C27.1545 16.0187 27.7087 15.0737 27.7087 14.0003Z" fill="#17D647"/>
<path d="M12.2494 18.6721C11.9408 18.6721 11.6322 18.554 11.3958 18.319L7.30754 14.2307C6.83629 13.7595 6.83629 12.9949 7.30754 12.525C7.77878 12.0538 8.54334 12.0538 9.0132 12.525L12.248 15.7598L18.3228 9.68644C18.794 9.2152 19.5586 9.2152 20.0284 9.68644C20.4997 10.1577 20.4997 10.9222 20.0284 11.3921L13.1015 18.319C12.8666 18.5553 12.5566 18.6721 12.248 18.6721H12.2494Z" fill="#D9D9D9"/>
</g>
<defs>
<clipPath id="clip0_36_2875">
<rect width="28" height="28" fill="white"/>
</clipPath>
</defs>
</svg>
