<svg width="28" height="28" viewBox="0 0 28 28" fill="none" xmlns="http://www.w3.org/2000/svg">
<g clip-path="url(#clip0_36_2821)">
<path d="M27.7087 14.0003C27.7087 12.927 27.1545 11.982 26.3145 11.4395C25.6203 10.9903 25.037 10.3895 24.7278 9.62533C24.7103 9.58449 24.6928 9.54366 24.6753 9.50283C24.3545 8.74449 24.337 7.90449 24.512 7.09949C24.722 6.12533 24.4478 5.06949 23.6895 4.31116C22.9312 3.55283 21.8753 3.27866 20.9012 3.48866C20.0962 3.66366 19.2562 3.64616 18.4978 3.32533C18.457 3.30783 18.4162 3.29033 18.3753 3.27283C17.6112 2.96366 17.0103 2.38033 16.5612 1.68616C16.0187 0.846159 15.0737 0.291992 14.0003 0.291992C12.927 0.291992 11.982 0.846159 11.4395 1.68616C10.9903 2.38033 10.3895 2.96366 9.62533 3.27283C9.58449 3.29033 9.54366 3.30783 9.50283 3.32533C8.74449 3.64616 7.90449 3.66366 7.09949 3.48866C6.12533 3.27866 5.06366 3.54699 4.30533 4.30533C3.54699 5.06366 3.27283 6.11949 3.48283 7.09366C3.65783 7.89866 3.64033 8.73866 3.31949 9.49699C3.30199 9.53783 3.28449 9.57866 3.26699 9.61949C2.95783 10.3837 2.37449 10.9845 1.68033 11.4337C0.846159 11.982 0.291992 12.927 0.291992 14.0003C0.291992 15.0737 0.846159 16.0187 1.68616 16.5612C2.38033 17.0103 2.96366 17.6112 3.27283 18.3753C3.29033 18.4162 3.30783 18.457 3.32533 18.4978C3.64616 19.2562 3.66366 20.0962 3.48866 20.9012C3.27866 21.8753 3.55283 22.9312 4.31116 23.6895C5.06949 24.4478 6.12533 24.722 7.09949 24.512C7.90449 24.337 8.74449 24.3545 9.50283 24.6753C9.54366 24.6928 9.58449 24.7103 9.62533 24.7278C10.3895 25.037 10.9903 25.6203 11.4395 26.3145C11.982 27.1545 12.927 27.7087 14.0003 27.7087C15.0737 27.7087 16.0187 27.1545 16.5612 26.3145C17.0103 25.6203 17.6112 25.037 18.3753 24.7278C18.4162 24.7103 18.457 24.6928 18.4978 24.6753C19.2562 24.3545 20.0962 24.337 20.9012 24.512C21.8753 24.722 22.9312 24.4478 23.6895 23.6895C24.4478 22.9312 24.722 21.8753 24.512 20.9012C24.337 20.0962 24.3545 19.2562 24.6753 18.4978C24.6928 18.457 24.7103 18.4162 24.7278 18.3753C25.037 17.6112 25.6203 17.0103 26.3145 16.5612C27.1545 16.0187 27.7087 15.0737 27.7087 14.0003Z" fill="#DE4242"/>
<path d="M15.237 14.0003L18.3462 10.8912C18.6903 10.547 18.6903 9.99282 18.3462 9.65449C18.002 9.31032 17.4478 9.31032 17.1095 9.65449L14.0003 12.7637L10.8912 9.65449C10.547 9.31032 9.99282 9.31032 9.65449 9.65449C9.31032 9.99865 9.31032 10.5528 9.65449 10.8912L12.7637 14.0003L9.65449 17.1095C9.31032 17.4537 9.31032 18.0078 9.65449 18.3462C9.82365 18.5153 10.0512 18.6028 10.2728 18.6028C10.4945 18.6028 10.722 18.5153 10.8912 18.3462L14.0003 15.237L17.1095 18.3462C17.2787 18.5153 17.5062 18.6028 17.7278 18.6028C17.9495 18.6028 18.177 18.5153 18.3462 18.3462C18.6903 18.002 18.6903 17.4478 18.3462 17.1095L15.237 14.0003Z" fill="white"/>
</g>
<defs>
<clipPath id="clip0_36_2821">
<rect width="28" height="28" fill="white"/>
</clipPath>
</defs>
</svg>
